G75*
%MOIN*%
%OFA0B0*%
%FSLAX24Y24*%
%IPPOS*%
%LPD*%
%AMOC8*
5,1,8,0,0,1.08239X$1,22.5*
%
%ADD10C,0.0030*%
%ADD11R,0.0512X0.0630*%
%ADD12R,0.0630X0.0512*%
%ADD13R,0.0512X0.0591*%
%ADD14OC8,0.1400*%
%ADD15R,0.0709X0.1417*%
%ADD16R,0.0400X0.0400*%
%ADD17C,0.0600*%
%ADD18R,0.0591X0.0512*%
%ADD19R,0.0709X0.0630*%
%ADD20R,0.0945X0.0945*%
%ADD21R,0.0157X0.0394*%
%ADD22R,0.0236X0.0866*%
%ADD23R,0.0630X0.0709*%
%ADD24C,0.0160*%
%ADD25C,0.0240*%
%ADD26C,0.0297*%
%ADD27C,0.0120*%
%ADD28C,0.0400*%
%ADD29C,0.0320*%
%ADD30C,0.0100*%
D10*
X024433Y002435D02*
X024433Y002805D01*
X024556Y002682D01*
X024680Y002805D01*
X024680Y002435D01*
X024801Y002497D02*
X024863Y002435D01*
X024986Y002435D01*
X025048Y002497D01*
X025048Y002744D01*
X024986Y002805D01*
X024863Y002805D01*
X024801Y002744D01*
X024801Y002497D01*
X025293Y002435D02*
X025293Y002805D01*
X025416Y002805D02*
X025169Y002805D01*
X025538Y002805D02*
X025785Y002805D01*
X025661Y002805D02*
X025661Y002435D01*
X025906Y002497D02*
X025906Y002744D01*
X025968Y002805D01*
X026091Y002805D01*
X026153Y002744D01*
X026153Y002497D01*
X026091Y002435D01*
X025968Y002435D01*
X025906Y002497D01*
X026274Y002497D02*
X026336Y002435D01*
X026521Y002435D01*
X026521Y002805D01*
X026336Y002805D01*
X026274Y002744D01*
X026274Y002682D01*
X026336Y002620D01*
X026521Y002620D01*
X026336Y002620D02*
X026274Y002558D01*
X026274Y002497D01*
D11*
X007660Y007389D03*
X006912Y007389D03*
D12*
X008911Y007263D03*
X008911Y006515D03*
X012161Y006265D03*
X013036Y006265D03*
X013911Y006265D03*
X013911Y007013D03*
X013036Y007013D03*
X012161Y007013D03*
X012411Y005013D03*
X011536Y005013D03*
X010661Y005013D03*
X010661Y004265D03*
X011536Y004265D03*
X012411Y004265D03*
X013286Y004265D03*
X013286Y005013D03*
D13*
X006910Y002389D03*
X006162Y002389D03*
D14*
X001911Y005389D03*
X025911Y005389D03*
D15*
X022111Y005389D03*
X005711Y005389D03*
D16*
X008311Y008249D03*
X009101Y008249D03*
X009881Y008249D03*
X010671Y008249D03*
X011461Y008249D03*
X012251Y008249D03*
X013031Y008249D03*
X013821Y008249D03*
X013821Y002549D03*
X013031Y002549D03*
X012251Y002549D03*
X011461Y002549D03*
X010671Y002549D03*
X009881Y002549D03*
X009101Y002549D03*
X008311Y002549D03*
D17*
X016361Y003014D02*
X016961Y003014D01*
X017736Y003014D02*
X018336Y003014D01*
X018336Y004014D02*
X017736Y004014D01*
X016961Y004014D02*
X016361Y004014D01*
X016361Y005014D02*
X016961Y005014D01*
X017736Y005014D02*
X018336Y005014D01*
X018336Y006014D02*
X017736Y006014D01*
X016961Y006264D02*
X016361Y006264D01*
X016361Y007264D02*
X016961Y007264D01*
X021161Y008214D02*
X021161Y008814D01*
X022161Y008814D02*
X022161Y008214D01*
X023161Y008214D02*
X023161Y008814D01*
X016961Y002014D02*
X016361Y002014D01*
D18*
X019911Y004140D03*
X019911Y004888D03*
X014786Y006265D03*
X014786Y007013D03*
X009286Y005263D03*
X009286Y004515D03*
D19*
X009786Y006213D03*
X010661Y006213D03*
X010661Y007315D03*
X009786Y007315D03*
D20*
X017677Y008451D03*
X019646Y008451D03*
D21*
X028518Y005990D03*
X028911Y005990D03*
X029305Y005990D03*
X029305Y004788D03*
X028911Y004788D03*
X028518Y004788D03*
D22*
X008411Y005537D03*
X007911Y005537D03*
X007411Y005537D03*
X006911Y005537D03*
X006911Y003490D03*
X007411Y003490D03*
X007911Y003490D03*
X008411Y003490D03*
D23*
X007962Y006514D03*
X006860Y006514D03*
D24*
X000391Y002914D02*
X000391Y001681D01*
X016015Y001681D01*
X015995Y001701D01*
X015951Y001762D01*
X015916Y001829D01*
X015893Y001901D01*
X015881Y001976D01*
X015881Y001994D01*
X016641Y001994D01*
X016641Y002034D01*
X016641Y002494D01*
X016323Y002494D01*
X016249Y002482D01*
X016177Y002459D01*
X016110Y002424D01*
X016049Y002380D01*
X015995Y002326D01*
X015951Y002265D01*
X015916Y002198D01*
X015893Y002126D01*
X015881Y002052D01*
X015881Y002034D01*
X016641Y002034D01*
X016681Y002034D01*
X016681Y002494D01*
X016999Y002494D01*
X017074Y002482D01*
X017146Y002459D01*
X017213Y002424D01*
X017274Y002380D01*
X017327Y002326D01*
X017372Y002265D01*
X017406Y002198D01*
X017429Y002126D01*
X017441Y002052D01*
X017441Y002034D01*
X016681Y002034D01*
X016681Y001994D01*
X017441Y001994D01*
X017441Y001976D01*
X017429Y001901D01*
X017406Y001829D01*
X017372Y001762D01*
X017327Y001701D01*
X017308Y001681D01*
X027427Y001681D01*
X027431Y004234D01*
X026652Y004234D01*
X026399Y003980D01*
X026320Y003901D01*
X026217Y003859D01*
X020887Y003859D01*
X020784Y003901D01*
X020387Y004299D01*
X020387Y004188D01*
X019959Y004188D01*
X019959Y004092D01*
X019959Y003704D01*
X020230Y003704D01*
X020276Y003716D01*
X020317Y003740D01*
X020351Y003773D01*
X020374Y003814D01*
X020387Y003860D01*
X020387Y004092D01*
X019959Y004092D01*
X019863Y004092D01*
X019436Y004092D01*
X019436Y003860D01*
X019448Y003814D01*
X019472Y003773D01*
X019505Y003740D01*
X019546Y003716D01*
X019592Y003704D01*
X019863Y003704D01*
X019863Y004092D01*
X019863Y004188D01*
X019436Y004188D01*
X019436Y004419D01*
X019448Y004465D01*
X019467Y004498D01*
X019416Y004549D01*
X019416Y005227D01*
X019456Y005266D01*
X019029Y005694D01*
X018723Y005694D01*
X018619Y005590D01*
X018436Y005514D01*
X017637Y005514D01*
X017621Y005520D01*
X017598Y005497D01*
X017637Y005514D01*
X018436Y005514D01*
X018619Y005438D01*
X018760Y005297D01*
X018836Y005113D01*
X018836Y004914D01*
X018760Y004731D01*
X018619Y004590D01*
X018436Y004514D01*
X017682Y004514D01*
X017682Y004514D01*
X018436Y004514D01*
X018619Y004438D01*
X018760Y004297D01*
X018836Y004113D01*
X018836Y003914D01*
X018760Y003731D01*
X018619Y003590D01*
X018436Y003514D01*
X017637Y003514D01*
X017453Y003590D01*
X017349Y003694D01*
X017244Y003590D01*
X017061Y003514D01*
X016262Y003514D01*
X016078Y003438D01*
X015937Y003297D01*
X015861Y003113D01*
X015861Y002914D01*
X015937Y002731D01*
X016078Y002590D01*
X016262Y002514D01*
X017061Y002514D01*
X017244Y002590D01*
X017364Y002709D01*
X017370Y002701D01*
X017424Y002648D01*
X017485Y002603D01*
X017552Y002569D01*
X017624Y002546D01*
X017698Y002534D01*
X018016Y002534D01*
X018016Y002994D01*
X018056Y002994D01*
X018056Y002534D01*
X018374Y002534D01*
X018449Y002546D01*
X018521Y002569D01*
X018588Y002603D01*
X018649Y002648D01*
X018702Y002701D01*
X018747Y002762D01*
X018781Y002829D01*
X018804Y002901D01*
X018816Y002976D01*
X018816Y002994D01*
X018056Y002994D01*
X018056Y003034D01*
X018016Y003034D01*
X018016Y003494D01*
X017698Y003494D01*
X017624Y003482D01*
X017552Y003459D01*
X017485Y003424D01*
X017424Y003380D01*
X017370Y003326D01*
X017364Y003318D01*
X017244Y003438D01*
X017061Y003514D01*
X016262Y003514D01*
X016078Y003590D01*
X015937Y003731D01*
X015861Y003914D01*
X015861Y004113D01*
X015911Y004234D01*
X013801Y004234D01*
X013801Y003926D01*
X013684Y003809D01*
X012888Y003809D01*
X012849Y003849D01*
X012809Y003809D01*
X012351Y003809D01*
X012260Y003717D01*
X012260Y003694D01*
X012207Y003566D01*
X012109Y003468D01*
X011981Y003415D01*
X011842Y003415D01*
X011714Y003468D01*
X011616Y003566D01*
X011563Y003694D01*
X011563Y003809D01*
X011476Y003809D01*
X011385Y003717D01*
X011385Y003694D01*
X011332Y003566D01*
X011234Y003468D01*
X011106Y003415D01*
X010967Y003415D01*
X010839Y003468D01*
X010741Y003566D01*
X010688Y003694D01*
X010688Y003809D01*
X010601Y003809D01*
X010510Y003717D01*
X010510Y003694D01*
X010457Y003566D01*
X010359Y003468D01*
X010231Y003415D01*
X010092Y003415D01*
X009964Y003468D01*
X009866Y003566D01*
X009813Y003694D01*
X009813Y003833D01*
X009866Y003961D01*
X009964Y004059D01*
X010092Y004112D01*
X010113Y004112D01*
X010146Y004146D01*
X009751Y004146D01*
X009782Y004176D02*
X009664Y004059D01*
X008908Y004059D01*
X008791Y004176D01*
X008791Y004363D01*
X008670Y004484D01*
X007468Y004484D01*
X007421Y004437D01*
X007416Y004435D01*
X007367Y004386D01*
X007289Y004308D01*
X007186Y004265D01*
X007057Y004265D01*
X007043Y004259D01*
X006904Y004259D01*
X006890Y004265D01*
X006720Y004265D01*
X006692Y004260D01*
X006665Y004265D01*
X006637Y004265D01*
X006611Y004276D01*
X006583Y004281D01*
X006560Y004297D01*
X006534Y004308D01*
X006514Y004328D01*
X006490Y004343D01*
X006481Y004358D01*
X006397Y004441D01*
X006351Y004552D01*
X006350Y004554D01*
X006330Y004574D01*
X006319Y004600D01*
X006304Y004624D01*
X006298Y004651D01*
X006288Y004677D01*
X006288Y004705D01*
X006282Y004733D01*
X006288Y004760D01*
X006288Y007560D01*
X006276Y007587D01*
X006276Y008815D01*
X006316Y008911D01*
X006389Y008984D01*
X006485Y009024D01*
X008400Y009024D01*
X008496Y008984D01*
X008569Y008911D01*
X008609Y008815D01*
X008609Y008634D01*
X008706Y008537D01*
X008818Y008649D01*
X009384Y008649D01*
X009491Y008542D01*
X009598Y008649D01*
X010164Y008649D01*
X010276Y008537D01*
X010388Y008649D01*
X010954Y008649D01*
X011066Y008537D01*
X011178Y008649D01*
X011744Y008649D01*
X011856Y008537D01*
X011968Y008649D01*
X012534Y008649D01*
X012641Y008542D01*
X012748Y008649D01*
X013314Y008649D01*
X013426Y008537D01*
X013538Y008649D01*
X014104Y008649D01*
X014221Y008532D01*
X014221Y007966D01*
X014104Y007849D01*
X014101Y007849D01*
X014101Y007469D01*
X014309Y007469D01*
X014359Y007419D01*
X014408Y007469D01*
X015164Y007469D01*
X015282Y007352D01*
X015282Y006674D01*
X015230Y006623D01*
X015249Y006590D01*
X015262Y006544D01*
X015262Y006313D01*
X014834Y006313D01*
X014834Y006217D01*
X015262Y006217D01*
X015262Y005985D01*
X015254Y005959D01*
X015756Y005959D01*
X015874Y005910D01*
X016270Y005514D01*
X016709Y005514D01*
X016959Y005764D01*
X016262Y005764D01*
X016078Y005840D01*
X015937Y005981D01*
X015861Y006164D01*
X015861Y006363D01*
X015937Y006547D01*
X016078Y006688D01*
X016262Y006764D01*
X017061Y006764D01*
X017244Y006688D01*
X017385Y006547D01*
X017437Y006422D01*
X017453Y006438D01*
X017637Y006514D01*
X018436Y006514D01*
X018619Y006438D01*
X018723Y006334D01*
X018904Y006334D01*
X019326Y006756D01*
X019326Y007779D01*
X019090Y007779D01*
X018973Y007896D01*
X018973Y009007D01*
X019059Y009092D01*
X018216Y009092D01*
X018219Y009091D01*
X018260Y009068D01*
X018293Y009034D01*
X018317Y008993D01*
X018329Y008947D01*
X018329Y008531D01*
X017757Y008531D01*
X017757Y008371D01*
X017757Y007799D01*
X018173Y007799D01*
X018219Y007811D01*
X018260Y007835D01*
X018293Y007868D01*
X018317Y007909D01*
X018329Y007955D01*
X018329Y008371D01*
X017757Y008371D01*
X017597Y008371D01*
X017597Y007799D01*
X017181Y007799D01*
X017135Y007811D01*
X017094Y007835D01*
X017061Y007868D01*
X017037Y007909D01*
X017025Y007955D01*
X017025Y008371D01*
X017597Y008371D01*
X017597Y008531D01*
X017025Y008531D01*
X017025Y008947D01*
X017037Y008993D01*
X017061Y009034D01*
X017094Y009068D01*
X017135Y009091D01*
X017138Y009092D01*
X000391Y009092D01*
X000391Y007864D01*
X005754Y007864D01*
X005886Y007732D01*
X005886Y006297D01*
X006148Y006297D01*
X006266Y006180D01*
X006266Y004775D01*
X006272Y004759D01*
X006272Y004424D01*
X006274Y004422D01*
X006274Y004422D01*
X006527Y004169D01*
X006967Y004169D01*
X007070Y004126D01*
X007073Y004123D01*
X007112Y004123D01*
X007229Y004006D01*
X007229Y003558D01*
X007231Y003554D01*
X007231Y003426D01*
X007229Y003422D01*
X007229Y002974D01*
X007191Y002936D01*
X007191Y002864D01*
X007236Y002852D01*
X007277Y002828D01*
X007310Y002795D01*
X007334Y002754D01*
X007346Y002708D01*
X007346Y002437D01*
X006958Y002437D01*
X006958Y002341D01*
X006958Y001913D01*
X007190Y001913D01*
X007236Y001926D01*
X007277Y001949D01*
X007310Y001983D01*
X007334Y002024D01*
X007346Y002070D01*
X007346Y002341D01*
X006958Y002341D01*
X006862Y002341D01*
X006862Y001913D01*
X006631Y001913D01*
X006585Y001926D01*
X006552Y001945D01*
X006501Y001893D01*
X005823Y001893D01*
X005706Y002011D01*
X005706Y002085D01*
X000391Y002085D01*
X000391Y001927D02*
X005790Y001927D01*
X005706Y002085D02*
X005606Y002185D01*
X005551Y002317D01*
X005551Y002567D01*
X005551Y002568D01*
X005551Y002639D01*
X005551Y002710D01*
X005551Y002711D01*
X005552Y002914D01*
X000391Y002914D01*
X000391Y002878D02*
X005552Y002878D01*
X005551Y002719D02*
X000391Y002719D01*
X000391Y002561D02*
X005551Y002561D01*
X005551Y002402D02*
X000391Y002402D01*
X000391Y002244D02*
X005582Y002244D01*
X006036Y002514D02*
X006036Y004264D01*
X006411Y003889D01*
X006911Y003889D01*
X006911Y002889D01*
X006411Y002889D01*
X006036Y002514D01*
X006036Y002561D02*
X006083Y002561D01*
X006036Y002719D02*
X006242Y002719D01*
X006400Y002878D02*
X006036Y002878D01*
X006036Y003036D02*
X006911Y003036D01*
X007229Y003036D02*
X008093Y003036D01*
X008093Y002974D02*
X008210Y002857D01*
X008403Y002857D01*
X008427Y002854D01*
X008440Y002857D01*
X008612Y002857D01*
X008729Y002974D01*
X008729Y003027D01*
X009051Y003269D01*
X009070Y003276D01*
X009095Y003302D01*
X009124Y003323D01*
X009134Y003341D01*
X009149Y003355D01*
X009162Y003388D01*
X009181Y003419D01*
X009183Y003439D01*
X009191Y003458D01*
X009191Y003494D01*
X009196Y003529D01*
X009191Y003549D01*
X009191Y003819D01*
X009149Y003922D01*
X009070Y004001D01*
X008967Y004044D01*
X008692Y004044D01*
X008612Y004123D01*
X008210Y004123D01*
X008093Y004006D01*
X008093Y002974D01*
X008190Y002878D02*
X007191Y002878D01*
X007343Y002719D02*
X008701Y002719D01*
X008701Y002832D02*
X008701Y002266D01*
X008818Y002149D01*
X009384Y002149D01*
X009491Y002256D01*
X009598Y002149D01*
X010164Y002149D01*
X010276Y002261D01*
X010388Y002149D01*
X010954Y002149D01*
X011066Y002261D01*
X011178Y002149D01*
X011744Y002149D01*
X011856Y002261D01*
X011968Y002149D01*
X012534Y002149D01*
X012641Y002256D01*
X012748Y002149D01*
X013314Y002149D01*
X013426Y002261D01*
X013538Y002149D01*
X014104Y002149D01*
X014221Y002266D01*
X014221Y002832D01*
X014104Y002949D01*
X013538Y002949D01*
X013426Y002837D01*
X013314Y002949D01*
X012748Y002949D01*
X012641Y002842D01*
X012534Y002949D01*
X011968Y002949D01*
X011856Y002837D01*
X011744Y002949D01*
X011178Y002949D01*
X011066Y002837D01*
X010954Y002949D01*
X010388Y002949D01*
X010276Y002837D01*
X010164Y002949D01*
X009598Y002949D01*
X009491Y002842D01*
X009384Y002949D01*
X008818Y002949D01*
X008701Y002832D01*
X008747Y002878D02*
X008633Y002878D01*
X008741Y003036D02*
X015861Y003036D01*
X015876Y002878D02*
X014175Y002878D01*
X014221Y002719D02*
X015949Y002719D01*
X016148Y002561D02*
X014221Y002561D01*
X014221Y002402D02*
X016079Y002402D01*
X015940Y002244D02*
X014199Y002244D01*
X013443Y002244D02*
X013409Y002244D01*
X012653Y002244D02*
X012629Y002244D01*
X011873Y002244D02*
X011839Y002244D01*
X011083Y002244D02*
X011049Y002244D01*
X010293Y002244D02*
X010259Y002244D01*
X009503Y002244D02*
X009479Y002244D01*
X008723Y002244D02*
X007346Y002244D01*
X007346Y002085D02*
X015887Y002085D01*
X015889Y001927D02*
X007237Y001927D01*
X006958Y001927D02*
X006862Y001927D01*
X006862Y002085D02*
X006958Y002085D01*
X006583Y001927D02*
X006534Y001927D01*
X006862Y002244D02*
X006958Y002244D01*
X006958Y002402D02*
X008701Y002402D01*
X008701Y002561D02*
X007346Y002561D01*
X008411Y003139D02*
X008411Y003764D01*
X008911Y003764D01*
X008911Y003514D01*
X008411Y003139D01*
X008411Y003195D02*
X008486Y003195D01*
X008411Y003353D02*
X008697Y003353D01*
X008953Y003195D02*
X015895Y003195D01*
X015994Y003353D02*
X009147Y003353D01*
X009194Y003512D02*
X009920Y003512D01*
X009823Y003670D02*
X009191Y003670D01*
X008911Y003670D02*
X008411Y003670D01*
X008411Y003512D02*
X008909Y003512D01*
X008786Y003514D02*
X008638Y003490D01*
X008411Y003490D01*
X008093Y003512D02*
X007231Y003512D01*
X007229Y003670D02*
X008093Y003670D01*
X008093Y003829D02*
X007229Y003829D01*
X006911Y003829D02*
X006036Y003829D01*
X006036Y003987D02*
X006313Y003987D01*
X006154Y004146D02*
X006036Y004146D01*
X006392Y004304D02*
X006542Y004304D01*
X006388Y004463D02*
X006272Y004463D01*
X006272Y004621D02*
X006305Y004621D01*
X006568Y004733D02*
X006568Y007639D01*
X007036Y007639D01*
X007036Y005045D01*
X007286Y004795D01*
X007286Y004701D01*
X007130Y004545D01*
X006693Y004545D01*
X006568Y004733D01*
X006568Y004780D02*
X007286Y004780D01*
X007161Y004764D02*
X008786Y004764D01*
X009036Y004514D01*
X009162Y004514D01*
X009286Y004515D01*
X009782Y004463D02*
X010146Y004463D01*
X010146Y004304D02*
X009782Y004304D01*
X009782Y004176D02*
X009782Y004853D01*
X009746Y004889D01*
X009782Y004924D01*
X009782Y005602D01*
X009665Y005718D01*
X009709Y005718D01*
X009709Y006135D01*
X009864Y006135D01*
X009864Y006290D01*
X010584Y006290D01*
X010584Y006708D01*
X010283Y006708D01*
X010237Y006695D01*
X010224Y006687D01*
X010210Y006695D01*
X010164Y006708D01*
X009864Y006708D01*
X009864Y006290D01*
X009709Y006290D01*
X009709Y006708D01*
X009408Y006708D01*
X009406Y006707D01*
X009406Y006794D01*
X009405Y006800D01*
X010223Y006800D01*
X010224Y006800D01*
X011047Y006800D01*
X011216Y006631D01*
X011216Y005469D01*
X011138Y005469D01*
X011084Y005414D01*
X011046Y005436D01*
X011000Y005449D01*
X010709Y005449D01*
X010709Y005061D01*
X010613Y005061D01*
X010613Y005449D01*
X010323Y005449D01*
X010277Y005436D01*
X010236Y005413D01*
X010202Y005379D01*
X010179Y005338D01*
X010166Y005292D01*
X010166Y005061D01*
X010613Y005061D01*
X010613Y004965D01*
X010166Y004965D01*
X010166Y004733D01*
X010179Y004687D01*
X010197Y004655D01*
X010146Y004603D01*
X010146Y004146D01*
X009892Y003987D02*
X009084Y003987D01*
X008821Y004146D02*
X007022Y004146D01*
X007229Y003987D02*
X008093Y003987D01*
X008791Y004304D02*
X007280Y004304D01*
X007447Y004463D02*
X008691Y004463D01*
X009782Y004621D02*
X010164Y004621D01*
X010166Y004780D02*
X009782Y004780D01*
X009782Y004938D02*
X010166Y004938D01*
X010166Y005097D02*
X009782Y005097D01*
X009782Y005255D02*
X010166Y005255D01*
X010613Y005255D02*
X010709Y005255D01*
X010709Y005097D02*
X010613Y005097D01*
X010613Y005414D02*
X010709Y005414D01*
X010238Y005414D02*
X009782Y005414D01*
X009782Y005572D02*
X011216Y005572D01*
X011216Y005731D02*
X011087Y005731D01*
X011085Y005730D02*
X011126Y005754D01*
X011160Y005787D01*
X011183Y005828D01*
X011196Y005874D01*
X011196Y006135D01*
X010739Y006135D01*
X010739Y006290D01*
X011196Y006290D01*
X011196Y006551D01*
X011183Y006597D01*
X011160Y006638D01*
X011126Y006672D01*
X011085Y006695D01*
X011039Y006708D01*
X010739Y006708D01*
X010739Y006290D01*
X010584Y006290D01*
X010584Y006135D01*
X010739Y006135D01*
X010739Y005718D01*
X011039Y005718D01*
X011085Y005730D01*
X010739Y005731D02*
X010584Y005731D01*
X010584Y005718D02*
X010584Y006135D01*
X010127Y006135D01*
X009864Y006135D01*
X009864Y005718D01*
X010164Y005718D01*
X010210Y005730D01*
X010224Y005738D01*
X010237Y005730D01*
X010283Y005718D01*
X010584Y005718D01*
X010236Y005731D02*
X010212Y005731D01*
X009864Y005731D02*
X009709Y005731D01*
X009286Y005731D02*
X008536Y005731D01*
X008536Y005572D02*
X009286Y005572D01*
X009012Y005537D02*
X009286Y005263D01*
X009286Y005255D02*
X008536Y005255D01*
X008536Y005139D02*
X008536Y005889D01*
X009286Y005889D01*
X009286Y005139D01*
X008536Y005139D01*
X008093Y005097D02*
X007729Y005097D01*
X007729Y005044D02*
X007729Y005979D01*
X007885Y005979D01*
X007885Y006436D01*
X008040Y006436D01*
X008040Y005979D01*
X008093Y005979D01*
X008093Y005044D01*
X007729Y005044D01*
X007729Y005255D02*
X008093Y005255D01*
X008093Y005414D02*
X007729Y005414D01*
X007411Y005537D02*
X007411Y007014D01*
X007660Y007263D01*
X007660Y007389D01*
X008785Y007389D01*
X008911Y007263D01*
X007911Y006764D02*
X011036Y006764D01*
X011161Y006639D01*
X011161Y006264D01*
X008161Y006264D01*
X008036Y006139D01*
X008036Y006014D01*
X007786Y006014D01*
X007786Y006639D01*
X007911Y006764D01*
X007829Y006682D02*
X011118Y006682D01*
X011108Y006682D02*
X011166Y006682D01*
X010739Y006682D02*
X010584Y006682D01*
X010224Y006800D02*
X010224Y006800D01*
X009864Y006682D02*
X009709Y006682D01*
X009709Y006523D02*
X009864Y006523D01*
X009864Y006365D02*
X009709Y006365D01*
X009864Y006206D02*
X010584Y006206D01*
X010739Y006206D02*
X011216Y006206D01*
X011216Y006048D02*
X011196Y006048D01*
X011196Y005889D02*
X011216Y005889D01*
X010739Y005889D02*
X010584Y005889D01*
X010584Y006048D02*
X010739Y006048D01*
X009864Y006048D02*
X009709Y006048D01*
X009709Y005889D02*
X009864Y005889D01*
X009012Y005537D02*
X008411Y005537D01*
X008536Y005414D02*
X009286Y005414D01*
X008093Y005572D02*
X007729Y005572D01*
X007729Y005731D02*
X008093Y005731D01*
X008093Y005889D02*
X007729Y005889D01*
X007786Y006048D02*
X008036Y006048D01*
X008040Y006048D02*
X007885Y006048D01*
X007885Y006206D02*
X008040Y006206D01*
X008104Y006206D02*
X007786Y006206D01*
X007786Y006365D02*
X011161Y006365D01*
X011196Y006365D02*
X011216Y006365D01*
X011216Y006523D02*
X011196Y006523D01*
X011161Y006523D02*
X007786Y006523D01*
X007885Y006365D02*
X008040Y006365D01*
X008040Y006436D02*
X008040Y006591D01*
X008416Y006591D01*
X008416Y006563D01*
X008863Y006563D01*
X008863Y006467D01*
X008416Y006467D01*
X008416Y006436D01*
X008040Y006436D01*
X008040Y006523D02*
X008863Y006523D01*
X010584Y006523D02*
X010739Y006523D01*
X010739Y006365D02*
X010584Y006365D01*
X012161Y007013D02*
X012161Y007389D01*
X011536Y008014D01*
X011536Y008174D01*
X011461Y008249D01*
X010676Y008249D02*
X011536Y007389D01*
X012251Y008249D02*
X013036Y007464D01*
X013036Y007013D01*
X013821Y007228D02*
X013946Y007103D01*
X014036Y007013D01*
X014786Y007013D01*
X015282Y006999D02*
X015960Y006999D01*
X015951Y007012D02*
X015995Y006951D01*
X016049Y006898D01*
X016110Y006853D01*
X016177Y006819D01*
X016249Y006796D01*
X016323Y006784D01*
X016641Y006784D01*
X016641Y007244D01*
X015881Y007244D01*
X015881Y007226D01*
X015893Y007151D01*
X015916Y007079D01*
X015951Y007012D01*
X015892Y007157D02*
X015282Y007157D01*
X015282Y007316D02*
X015884Y007316D01*
X015881Y007302D02*
X015893Y007376D01*
X015916Y007448D01*
X015951Y007515D01*
X015995Y007576D01*
X016049Y007630D01*
X016110Y007674D01*
X016177Y007709D01*
X016249Y007732D01*
X016323Y007744D01*
X016641Y007744D01*
X016641Y007284D01*
X016681Y007284D01*
X016681Y007744D01*
X016999Y007744D01*
X017074Y007732D01*
X017146Y007709D01*
X017213Y007674D01*
X017274Y007630D01*
X017327Y007576D01*
X017372Y007515D01*
X017406Y007448D01*
X017429Y007376D01*
X017441Y007302D01*
X017441Y007284D01*
X016681Y007284D01*
X016681Y007244D01*
X017441Y007244D01*
X017441Y007226D01*
X017429Y007151D01*
X017406Y007079D01*
X017372Y007012D01*
X017327Y006951D01*
X017274Y006898D01*
X017213Y006853D01*
X017146Y006819D01*
X017074Y006796D01*
X016999Y006784D01*
X016681Y006784D01*
X016681Y007244D01*
X016641Y007244D01*
X016641Y007284D01*
X015881Y007284D01*
X015881Y007302D01*
X015930Y007474D02*
X014101Y007474D01*
X014101Y007633D02*
X016053Y007633D01*
X016641Y007633D02*
X016681Y007633D01*
X016681Y007474D02*
X016641Y007474D01*
X016641Y007316D02*
X016681Y007316D01*
X016681Y007157D02*
X016641Y007157D01*
X016641Y006999D02*
X016681Y006999D01*
X016681Y006840D02*
X016641Y006840D01*
X016135Y006840D02*
X015282Y006840D01*
X015282Y006682D02*
X016072Y006682D01*
X015928Y006523D02*
X015262Y006523D01*
X015262Y006365D02*
X015862Y006365D01*
X015861Y006206D02*
X015262Y006206D01*
X015262Y006048D02*
X015910Y006048D01*
X015895Y005889D02*
X016029Y005889D01*
X016053Y005731D02*
X016926Y005731D01*
X016767Y005572D02*
X016212Y005572D01*
X015193Y005264D02*
X013537Y005264D01*
X013286Y005013D01*
X013724Y004639D02*
X013849Y004514D01*
X017286Y004514D01*
X017786Y005014D01*
X018036Y005014D01*
X018777Y005255D02*
X019445Y005255D01*
X019416Y005097D02*
X018836Y005097D01*
X018836Y004938D02*
X019416Y004938D01*
X019416Y004780D02*
X018781Y004780D01*
X018651Y004621D02*
X019416Y004621D01*
X019448Y004463D02*
X018559Y004463D01*
X018753Y004304D02*
X019436Y004304D01*
X019863Y004146D02*
X018823Y004146D01*
X018836Y003987D02*
X019436Y003987D01*
X019863Y003987D02*
X019959Y003987D01*
X019959Y004146D02*
X020540Y004146D01*
X020387Y003987D02*
X020698Y003987D01*
X020943Y004139D02*
X020193Y004889D01*
X019912Y004889D01*
X019911Y004888D01*
X020407Y005071D02*
X020407Y005227D01*
X020289Y005344D01*
X020225Y005344D01*
X020183Y005445D01*
X020093Y005535D01*
X019551Y006076D01*
X019917Y006442D01*
X019966Y006559D01*
X019966Y007779D01*
X020201Y007779D01*
X020318Y007896D01*
X020318Y008131D01*
X020661Y008131D01*
X020661Y008114D01*
X020737Y007931D01*
X020878Y007790D01*
X021062Y007714D01*
X021153Y007714D01*
X020426Y006987D01*
X020404Y006987D01*
X020276Y006934D01*
X020178Y006836D01*
X020125Y006708D01*
X020125Y006569D01*
X020178Y006441D01*
X020276Y006343D01*
X020404Y006290D01*
X020543Y006290D01*
X020671Y006343D01*
X020769Y006441D01*
X020822Y006569D01*
X020822Y006591D01*
X021979Y007748D01*
X022062Y007714D01*
X022261Y007714D01*
X022444Y007790D01*
X022585Y007931D01*
X022661Y008114D01*
X022661Y008913D01*
X022587Y009092D01*
X022770Y009092D01*
X022751Y009065D01*
X022716Y008998D01*
X022693Y008926D01*
X022681Y008852D01*
X022681Y008534D01*
X023141Y008534D01*
X023141Y008494D01*
X022681Y008494D01*
X022681Y008176D01*
X022693Y008101D01*
X022716Y008029D01*
X022751Y007962D01*
X022795Y007901D01*
X022849Y007848D01*
X022910Y007803D01*
X022977Y007769D01*
X023049Y007746D01*
X023123Y007734D01*
X023141Y007734D01*
X023141Y008494D01*
X023181Y008494D01*
X023181Y008534D01*
X023641Y008534D01*
X023641Y008852D01*
X023629Y008926D01*
X023606Y008998D01*
X023572Y009065D01*
X023552Y009092D01*
X027426Y009092D01*
X027426Y006418D01*
X027536Y006309D01*
X027536Y006258D01*
X027433Y006215D01*
X027335Y006117D01*
X027282Y005989D01*
X027282Y005851D01*
X027335Y005723D01*
X027433Y005625D01*
X027536Y005582D01*
X027536Y005196D01*
X027433Y005153D01*
X027335Y005055D01*
X027282Y004927D01*
X027282Y004794D01*
X026561Y004794D01*
X026791Y005024D01*
X026791Y005309D01*
X025991Y005309D01*
X025991Y004509D01*
X026135Y004509D01*
X026045Y004419D01*
X021058Y004419D01*
X020430Y005047D01*
X020407Y005071D01*
X020407Y005097D02*
X021577Y005097D01*
X021577Y005255D02*
X020378Y005255D01*
X020195Y005414D02*
X022031Y005414D01*
X022031Y005469D02*
X021577Y005469D01*
X021577Y006121D01*
X021589Y006167D01*
X021613Y006208D01*
X021646Y006241D01*
X021687Y006265D01*
X021733Y006277D01*
X022031Y006277D01*
X022031Y005469D01*
X022191Y005469D01*
X022191Y006277D01*
X022489Y006277D01*
X022535Y006265D01*
X022576Y006241D01*
X022610Y006208D01*
X022633Y006167D01*
X022646Y006121D01*
X022646Y005469D01*
X022191Y005469D01*
X022191Y005309D01*
X022191Y004500D01*
X022489Y004500D01*
X022535Y004512D01*
X022576Y004536D01*
X022610Y004570D01*
X022633Y004611D01*
X022646Y004656D01*
X022646Y005309D01*
X022191Y005309D01*
X022031Y005309D01*
X021577Y005309D01*
X021577Y004656D01*
X021589Y004611D01*
X021613Y004570D01*
X021646Y004536D01*
X021687Y004512D01*
X021733Y004500D01*
X022031Y004500D01*
X022031Y005309D01*
X022031Y005469D01*
X022031Y005572D02*
X022191Y005572D01*
X022191Y005731D02*
X022031Y005731D01*
X021577Y005731D02*
X019897Y005731D01*
X020055Y005572D02*
X021577Y005572D01*
X022191Y005414D02*
X025831Y005414D01*
X025831Y005469D02*
X025831Y005309D01*
X025031Y005309D01*
X025031Y005024D01*
X025547Y004509D01*
X025831Y004509D01*
X025831Y005309D01*
X025991Y005309D01*
X025991Y005469D01*
X025831Y005469D01*
X025831Y006269D01*
X025547Y006269D01*
X025031Y005753D01*
X025031Y005469D01*
X025831Y005469D01*
X025831Y005572D02*
X025991Y005572D01*
X025991Y005469D02*
X025991Y006269D01*
X026276Y006269D01*
X026791Y005753D01*
X026791Y005469D01*
X025991Y005469D01*
X025991Y005414D02*
X027536Y005414D01*
X027536Y005572D02*
X026791Y005572D01*
X026791Y005731D02*
X027331Y005731D01*
X027282Y005889D02*
X026655Y005889D01*
X026497Y006048D02*
X027306Y006048D01*
X027424Y006206D02*
X026338Y006206D01*
X025991Y006206D02*
X025831Y006206D01*
X025831Y006048D02*
X025991Y006048D01*
X025991Y005889D02*
X025831Y005889D01*
X025831Y005731D02*
X025991Y005731D01*
X025326Y006048D02*
X022646Y006048D01*
X022646Y005889D02*
X025167Y005889D01*
X025031Y005731D02*
X022646Y005731D01*
X022646Y005572D02*
X025031Y005572D01*
X025031Y005255D02*
X022646Y005255D01*
X022646Y005097D02*
X025031Y005097D01*
X025117Y004938D02*
X022646Y004938D01*
X022646Y004780D02*
X025276Y004780D01*
X025434Y004621D02*
X022636Y004621D01*
X022191Y004621D02*
X022031Y004621D01*
X021586Y004621D02*
X020856Y004621D01*
X021014Y004463D02*
X026089Y004463D01*
X025991Y004621D02*
X025831Y004621D01*
X025831Y004780D02*
X025991Y004780D01*
X025991Y004938D02*
X025831Y004938D01*
X025831Y005097D02*
X025991Y005097D01*
X025991Y005255D02*
X025831Y005255D01*
X026705Y004938D02*
X027286Y004938D01*
X027377Y005097D02*
X026791Y005097D01*
X026791Y005255D02*
X027536Y005255D01*
X027650Y004838D02*
X028468Y004838D01*
X028518Y004788D01*
X028911Y004788D02*
X028911Y004358D01*
X028349Y004358D01*
X028193Y004514D01*
X026536Y004514D01*
X026161Y004139D01*
X020943Y004139D01*
X020378Y003829D02*
X027430Y003829D01*
X027431Y003987D02*
X026406Y003987D01*
X026564Y004146D02*
X027431Y004146D01*
X027430Y003670D02*
X018700Y003670D01*
X018521Y003459D02*
X018449Y003482D01*
X018374Y003494D01*
X018056Y003494D01*
X018056Y003034D01*
X018816Y003034D01*
X018816Y003052D01*
X018804Y003126D01*
X018781Y003198D01*
X018747Y003265D01*
X018702Y003326D01*
X018649Y003380D01*
X018588Y003424D01*
X018521Y003459D01*
X018676Y003353D02*
X027430Y003353D01*
X027429Y003195D02*
X018782Y003195D01*
X018816Y003036D02*
X023775Y003036D01*
X023772Y003030D02*
X023765Y003009D01*
X023760Y002987D01*
X023757Y002965D01*
X023757Y002275D01*
X023760Y002253D01*
X023765Y002231D01*
X023772Y002210D01*
X023782Y002190D01*
X023794Y002171D01*
X023808Y002153D01*
X023824Y002137D01*
X023841Y002123D01*
X023860Y002111D01*
X023880Y002102D01*
X023902Y002094D01*
X023924Y002089D01*
X023946Y002087D01*
X026681Y002087D01*
X026703Y002089D01*
X026725Y002094D01*
X026746Y002102D01*
X026766Y002111D01*
X026785Y002123D01*
X026803Y002137D01*
X026819Y002153D01*
X026833Y002171D01*
X026845Y002190D01*
X026855Y002210D01*
X026862Y002231D01*
X026867Y002253D01*
X026870Y002275D01*
X026870Y002965D01*
X026867Y002987D01*
X026862Y003009D01*
X026855Y003030D01*
X026845Y003050D01*
X026833Y003069D01*
X026819Y003087D01*
X026803Y003103D01*
X026785Y003117D01*
X026766Y003129D01*
X026746Y003138D01*
X026725Y003146D01*
X026703Y003151D01*
X026681Y003153D01*
X023946Y003153D01*
X023924Y003151D01*
X023902Y003146D01*
X023880Y003138D01*
X023860Y003129D01*
X023841Y003117D01*
X023824Y003103D01*
X023808Y003087D01*
X023794Y003069D01*
X023782Y003050D01*
X023772Y003030D01*
X023757Y002878D02*
X018797Y002878D01*
X018716Y002719D02*
X023757Y002719D01*
X023757Y002561D02*
X018495Y002561D01*
X018056Y002561D02*
X018016Y002561D01*
X018016Y002719D02*
X018056Y002719D01*
X018056Y002878D02*
X018016Y002878D01*
X018016Y003036D02*
X018056Y003036D01*
X018056Y003195D02*
X018016Y003195D01*
X018016Y003353D02*
X018056Y003353D01*
X017397Y003353D02*
X017329Y003353D01*
X017066Y003512D02*
X027430Y003512D01*
X027429Y003036D02*
X026852Y003036D01*
X026870Y002878D02*
X027429Y002878D01*
X027429Y002719D02*
X026870Y002719D01*
X026870Y002561D02*
X027428Y002561D01*
X027428Y002402D02*
X026870Y002402D01*
X026865Y002244D02*
X027428Y002244D01*
X027427Y002085D02*
X017436Y002085D01*
X017433Y001927D02*
X027427Y001927D01*
X027427Y001768D02*
X017375Y001768D01*
X016681Y002085D02*
X016641Y002085D01*
X016641Y002244D02*
X016681Y002244D01*
X016681Y002402D02*
X016641Y002402D01*
X017174Y002561D02*
X017577Y002561D01*
X017243Y002402D02*
X023757Y002402D01*
X023762Y002244D02*
X017383Y002244D01*
X015948Y001768D02*
X000391Y001768D01*
X006036Y003195D02*
X006911Y003195D01*
X006911Y003353D02*
X006036Y003353D01*
X006036Y003512D02*
X006911Y003512D01*
X006911Y003670D02*
X006036Y003670D01*
X007229Y003353D02*
X008093Y003353D01*
X008093Y003195D02*
X007229Y003195D01*
X009187Y003829D02*
X009813Y003829D01*
X010161Y003765D02*
X010661Y004265D01*
X011036Y003765D02*
X011536Y004265D01*
X011911Y003765D02*
X012411Y004265D01*
X013286Y004265D01*
X013801Y004146D02*
X015875Y004146D01*
X015861Y003987D02*
X013801Y003987D01*
X013704Y003829D02*
X015897Y003829D01*
X015998Y003670D02*
X012250Y003670D01*
X012152Y003512D02*
X016257Y003512D01*
X017325Y003670D02*
X017373Y003670D01*
X018801Y003829D02*
X019444Y003829D01*
X019863Y003829D02*
X019959Y003829D01*
X020697Y004780D02*
X021577Y004780D01*
X021577Y004938D02*
X020539Y004938D01*
X019309Y005414D02*
X018643Y005414D01*
X018577Y005572D02*
X019150Y005572D01*
X019738Y005889D02*
X021577Y005889D01*
X021577Y006048D02*
X019580Y006048D01*
X019681Y006206D02*
X021612Y006206D01*
X022031Y006206D02*
X022191Y006206D01*
X022611Y006206D02*
X025484Y006206D01*
X027411Y006264D02*
X028193Y006264D01*
X028349Y006420D01*
X028755Y006420D01*
X028880Y006326D01*
X028911Y006420D01*
X028911Y006139D01*
X028518Y005990D02*
X028468Y005940D01*
X027650Y005940D01*
X027480Y006365D02*
X020693Y006365D01*
X020803Y006523D02*
X027426Y006523D01*
X027426Y006682D02*
X020913Y006682D01*
X021071Y006840D02*
X027426Y006840D01*
X027426Y006999D02*
X021230Y006999D01*
X021388Y007157D02*
X027426Y007157D01*
X027426Y007316D02*
X021547Y007316D01*
X021705Y007474D02*
X027426Y007474D01*
X027426Y007633D02*
X021864Y007633D01*
X022446Y007791D02*
X022933Y007791D01*
X023141Y007791D02*
X023181Y007791D01*
X023181Y007734D02*
X023199Y007734D01*
X023274Y007746D01*
X023346Y007769D01*
X023413Y007803D01*
X023474Y007848D01*
X023527Y007901D01*
X023572Y007962D01*
X023606Y008029D01*
X023629Y008101D01*
X023641Y008176D01*
X023641Y008494D01*
X023181Y008494D01*
X023181Y007734D01*
X023389Y007791D02*
X027426Y007791D01*
X027426Y007950D02*
X023563Y007950D01*
X023181Y007950D02*
X023141Y007950D01*
X022760Y007950D02*
X022593Y007950D01*
X022659Y008108D02*
X022692Y008108D01*
X022681Y008267D02*
X022661Y008267D01*
X022661Y008425D02*
X022681Y008425D01*
X022161Y008514D02*
X022161Y008326D01*
X020474Y006639D01*
X020144Y006523D02*
X019951Y006523D01*
X019840Y006365D02*
X020255Y006365D01*
X020125Y006682D02*
X019966Y006682D01*
X019966Y006840D02*
X020183Y006840D01*
X019966Y006999D02*
X020438Y006999D01*
X020596Y007157D02*
X019966Y007157D01*
X019966Y007316D02*
X020755Y007316D01*
X020913Y007474D02*
X019966Y007474D01*
X019966Y007633D02*
X021072Y007633D01*
X020877Y007791D02*
X020213Y007791D01*
X020318Y007950D02*
X020729Y007950D01*
X020664Y008108D02*
X020318Y008108D01*
X019078Y007791D02*
X014101Y007791D01*
X014205Y007950D02*
X017026Y007950D01*
X017597Y007950D02*
X017757Y007950D01*
X017757Y008108D02*
X017597Y008108D01*
X017025Y008108D02*
X014221Y008108D01*
X013821Y008249D02*
X013821Y007228D01*
X013946Y007103D02*
X013911Y007013D01*
X017187Y006840D02*
X019326Y006840D01*
X019252Y006682D02*
X017250Y006682D01*
X017395Y006523D02*
X019093Y006523D01*
X018935Y006365D02*
X018692Y006365D01*
X019326Y006999D02*
X017362Y006999D01*
X017430Y007157D02*
X019326Y007157D01*
X019326Y007316D02*
X017439Y007316D01*
X017393Y007474D02*
X019326Y007474D01*
X019326Y007633D02*
X017270Y007633D01*
X018328Y007950D02*
X018973Y007950D01*
X018973Y008108D02*
X018329Y008108D01*
X018329Y008267D02*
X018973Y008267D01*
X018973Y008425D02*
X017757Y008425D01*
X017757Y008267D02*
X017597Y008267D01*
X017597Y008425D02*
X014221Y008425D01*
X014221Y008267D02*
X017025Y008267D01*
X017025Y008584D02*
X014169Y008584D01*
X013473Y008584D02*
X013379Y008584D01*
X012683Y008584D02*
X012599Y008584D01*
X011903Y008584D02*
X011809Y008584D01*
X011113Y008584D02*
X011019Y008584D01*
X010323Y008584D02*
X010229Y008584D01*
X009533Y008584D02*
X009449Y008584D01*
X008753Y008584D02*
X008659Y008584D01*
X008609Y008742D02*
X017025Y008742D01*
X017025Y008901D02*
X008573Y008901D01*
X010671Y008249D02*
X010676Y008249D01*
X007036Y007633D02*
X006568Y007633D01*
X006568Y007474D02*
X007036Y007474D01*
X007036Y007316D02*
X006568Y007316D01*
X006568Y007157D02*
X007036Y007157D01*
X007036Y006999D02*
X006568Y006999D01*
X006288Y006999D02*
X005886Y006999D01*
X005886Y007157D02*
X006288Y007157D01*
X006288Y007316D02*
X005886Y007316D01*
X005886Y007474D02*
X006288Y007474D01*
X006276Y007633D02*
X005886Y007633D01*
X005827Y007791D02*
X006276Y007791D01*
X006276Y007950D02*
X000391Y007950D01*
X000391Y008108D02*
X006276Y008108D01*
X006276Y008267D02*
X000391Y008267D01*
X000391Y008425D02*
X006276Y008425D01*
X006276Y008584D02*
X000391Y008584D01*
X000391Y008742D02*
X006276Y008742D01*
X006312Y008901D02*
X000391Y008901D01*
X000391Y009059D02*
X017086Y009059D01*
X018268Y009059D02*
X019026Y009059D01*
X018973Y008901D02*
X018329Y008901D01*
X018329Y008742D02*
X018973Y008742D01*
X018973Y008584D02*
X018329Y008584D01*
X022601Y009059D02*
X022748Y009059D01*
X022689Y008901D02*
X022661Y008901D01*
X022661Y008742D02*
X022681Y008742D01*
X022681Y008584D02*
X022661Y008584D01*
X023141Y008425D02*
X023181Y008425D01*
X023181Y008267D02*
X023141Y008267D01*
X023641Y008267D02*
X027426Y008267D01*
X027426Y008425D02*
X023641Y008425D01*
X023641Y008584D02*
X027426Y008584D01*
X027426Y008742D02*
X023641Y008742D01*
X023633Y008901D02*
X027426Y008901D01*
X027426Y009059D02*
X023575Y009059D01*
X023631Y008108D02*
X027426Y008108D01*
X023181Y008108D02*
X023141Y008108D01*
X022191Y006048D02*
X022031Y006048D01*
X022031Y005889D02*
X022191Y005889D01*
X022191Y005255D02*
X022031Y005255D01*
X022031Y005097D02*
X022191Y005097D01*
X022191Y004938D02*
X022031Y004938D01*
X022031Y004780D02*
X022191Y004780D01*
X013467Y002878D02*
X013385Y002878D01*
X012677Y002878D02*
X012605Y002878D01*
X011897Y002878D02*
X011815Y002878D01*
X011107Y002878D02*
X011025Y002878D01*
X010317Y002878D02*
X010235Y002878D01*
X009527Y002878D02*
X009455Y002878D01*
X010402Y003512D02*
X010795Y003512D01*
X010698Y003670D02*
X010500Y003670D01*
X010161Y003764D02*
X010161Y003765D01*
X011036Y003764D02*
X011036Y003765D01*
X011375Y003670D02*
X011573Y003670D01*
X011670Y003512D02*
X011277Y003512D01*
X011911Y003764D02*
X011911Y003765D01*
X012829Y003829D02*
X012869Y003829D01*
X007206Y004621D02*
X006642Y004621D01*
X006288Y004780D02*
X006266Y004780D01*
X006266Y004938D02*
X006288Y004938D01*
X006568Y004938D02*
X007143Y004938D01*
X007161Y004764D02*
X006911Y005014D01*
X006911Y005139D01*
X006911Y005537D01*
X007036Y005572D02*
X006568Y005572D01*
X006568Y005731D02*
X007036Y005731D01*
X007036Y005889D02*
X006568Y005889D01*
X006568Y006048D02*
X007036Y006048D01*
X007036Y006206D02*
X006568Y006206D01*
X006288Y006206D02*
X006240Y006206D01*
X006266Y006048D02*
X006288Y006048D01*
X006288Y005889D02*
X006266Y005889D01*
X006266Y005731D02*
X006288Y005731D01*
X006288Y005572D02*
X006266Y005572D01*
X006266Y005414D02*
X006288Y005414D01*
X006568Y005414D02*
X007036Y005414D01*
X007036Y005255D02*
X006568Y005255D01*
X006568Y005097D02*
X007036Y005097D01*
X006288Y005097D02*
X006266Y005097D01*
X006266Y005255D02*
X006288Y005255D01*
X006288Y006365D02*
X005886Y006365D01*
X005886Y006523D02*
X006288Y006523D01*
X006568Y006523D02*
X007036Y006523D01*
X007036Y006365D02*
X006568Y006365D01*
X006568Y006682D02*
X007036Y006682D01*
X007036Y006840D02*
X006568Y006840D01*
X006288Y006840D02*
X005886Y006840D01*
X005886Y006682D02*
X006288Y006682D01*
D25*
X006860Y006514D02*
X006912Y006566D01*
X006912Y007389D01*
X006912Y007640D01*
X007536Y008264D01*
X008296Y008264D01*
X008311Y008249D01*
X008311Y008239D01*
X008786Y007764D01*
X009536Y007764D01*
X009786Y007514D01*
X009786Y007315D01*
X010661Y007315D01*
X010985Y007315D01*
X011536Y006764D01*
X011536Y005639D01*
X011536Y005013D01*
X012411Y005013D02*
X012411Y005639D01*
X013036Y005639D01*
X013036Y006265D01*
X013911Y006265D02*
X013911Y005639D01*
X015693Y005639D01*
X016318Y005014D01*
X016661Y005014D01*
X017661Y006014D01*
X018036Y006014D01*
X019036Y006014D01*
X019646Y006623D01*
X019646Y008451D01*
X021099Y008451D01*
X021161Y008514D01*
X019161Y006014D02*
X019036Y006014D01*
X019161Y006014D02*
X019911Y005264D01*
X019911Y004888D01*
X018536Y006014D02*
X018036Y006014D01*
X013911Y005639D02*
X013036Y005639D01*
X012411Y005639D02*
X011536Y005639D01*
X010712Y007139D02*
X010661Y007315D01*
X006912Y007389D02*
X006860Y007337D01*
X006860Y006514D02*
X006911Y006463D01*
X006911Y005537D01*
X006911Y005139D02*
X006974Y004608D01*
X005912Y004688D02*
X005711Y005389D01*
X005912Y003514D02*
X006685Y003514D01*
X006810Y003389D01*
X006911Y003490D01*
X006162Y002389D02*
X005911Y002389D01*
D26*
X007505Y002483D03*
X007818Y002483D03*
X007818Y002170D03*
X007505Y002170D03*
X007505Y001858D03*
X007818Y001858D03*
X007818Y002795D03*
X007505Y002795D03*
X008943Y003045D03*
X009193Y003295D03*
X009443Y003545D03*
X010161Y003764D03*
X009661Y003826D03*
X009849Y004108D03*
X010005Y004389D03*
X010005Y004701D03*
X010005Y005014D03*
X010005Y005326D03*
X009849Y005608D03*
X010161Y005608D03*
X010474Y005608D03*
X010786Y005608D03*
X011099Y005608D03*
X007224Y004733D03*
X006974Y004608D03*
X006693Y004639D03*
X006693Y004920D03*
X006974Y004889D03*
X005068Y005389D03*
X004786Y005389D03*
X008786Y003514D03*
X011036Y003764D03*
X011911Y003764D03*
X014880Y003670D03*
X015193Y003670D03*
X015193Y003358D03*
X014880Y003358D03*
X015193Y005264D03*
X015349Y006014D03*
X015349Y006295D03*
X015630Y006295D03*
X011536Y007389D03*
X007786Y008045D03*
X007474Y008045D03*
X007161Y008045D03*
X007161Y008358D03*
X006849Y008358D03*
X007474Y008358D03*
X007786Y008358D03*
X007786Y008670D03*
X007474Y008670D03*
X007161Y008670D03*
X006849Y008670D03*
X004818Y008951D03*
X004505Y008951D03*
X001443Y008983D03*
X001130Y008983D03*
X000818Y008983D03*
X000505Y008983D03*
X000505Y008670D03*
X000505Y008358D03*
X000505Y008045D03*
X014536Y008951D03*
X014849Y008951D03*
X015161Y008951D03*
X015474Y008951D03*
X015786Y008951D03*
X020474Y006639D03*
X027286Y008014D03*
X027286Y008358D03*
X027286Y008670D03*
X027286Y008983D03*
X026974Y008983D03*
X026661Y008983D03*
X026349Y008983D03*
X028911Y006420D03*
X027630Y005920D03*
X027630Y004858D03*
X028911Y004358D03*
X027286Y002764D03*
X027286Y002420D03*
X027286Y002108D03*
X027286Y001795D03*
X026974Y001795D03*
X026661Y001795D03*
X026349Y001795D03*
X004224Y001826D03*
X004224Y002170D03*
X004224Y002514D03*
X004224Y002826D03*
D27*
X011536Y004265D02*
X011910Y004639D01*
X012162Y006265D02*
X012161Y006265D01*
X012162Y006265D02*
X012661Y006639D01*
X013411Y006639D02*
X013661Y006764D01*
X013910Y007013D01*
X013911Y007013D01*
X008349Y007889D02*
X008349Y008764D01*
X006536Y008764D01*
X006536Y007639D01*
X007099Y007639D01*
X007099Y007889D01*
X008349Y007889D01*
X008349Y007969D02*
X006536Y007969D01*
X006536Y008087D02*
X008349Y008087D01*
X008349Y008206D02*
X006536Y008206D01*
X006536Y008324D02*
X008349Y008324D01*
X008349Y008443D02*
X006536Y008443D01*
X006536Y008561D02*
X008349Y008561D01*
X008349Y008680D02*
X006536Y008680D01*
X006536Y007850D02*
X007099Y007850D01*
X007099Y007732D02*
X006536Y007732D01*
X027161Y006014D02*
X027411Y006264D01*
X027650Y005940D02*
X027630Y005920D01*
X028911Y005990D02*
X028911Y006139D01*
X027650Y004838D02*
X027630Y004858D01*
D28*
X005711Y005389D02*
X004786Y005389D01*
X001911Y005389D01*
D29*
X005912Y004688D02*
X005912Y003514D01*
X005911Y002639D01*
X005911Y002389D01*
D30*
X011910Y004639D02*
X013724Y004639D01*
X013411Y006639D02*
X012661Y006639D01*
M02*
