%
M48
M72
T01C0.0197
T02C0.0236
T03C0.0335
T04C0.0400
T05C0.0669
%
T01
X4224Y1826
X4224Y2170
X4224Y2514
X4224Y2826
X7505Y2795
X7818Y2795
X7818Y2483
X7505Y2483
X7505Y2170
X7818Y2170
X7818Y1858
X7505Y1858
X8943Y3045
X9193Y3295
X9443Y3545
X10161Y3764
X9661Y3826
X9849Y4108
X10005Y4389
X10005Y4701
X10005Y5014
X10005Y5326
X9849Y5608
X10161Y5608
X10474Y5608
X10786Y5608
X11099Y5608
X7224Y4733
X6974Y4608
X6693Y4639
X6693Y4920
X6974Y4889
X5068Y5389
X4786Y5389
X8786Y3514
X11036Y3764
X11911Y3764
X14880Y3670
X15193Y3670
X15193Y3358
X14880Y3358
X15193Y5264
X15349Y6014
X15349Y6295
X15630Y6295
X11536Y7389
X7786Y8045
X7474Y8045
X7161Y8045
X7161Y8358
X6849Y8358
X7474Y8358
X7786Y8358
X7786Y8670
X7474Y8670
X7161Y8670
X6849Y8670
X4818Y8951
X4505Y8951
X1443Y8983
X1130Y8983
X818Y8983
X505Y8983
X505Y8670
X505Y8358
X505Y8045
X14536Y8951
X14849Y8951
X15161Y8951
X15474Y8951
X15786Y8951
X20474Y6639
X27286Y8014
X27286Y8358
X27286Y8670
X27286Y8983
X26974Y8983
X26661Y8983
X26349Y8983
X28911Y6420
X27630Y5920
X27630Y4858
X28911Y4358
X27286Y2764
X27286Y2420
X27286Y2108
X27286Y1795
X26974Y1795
X26661Y1795
X26349Y1795
T02
X13821Y2549
X13031Y2549
X12251Y2549
X11461Y2549
X10671Y2549
X9881Y2549
X9101Y2549
X8311Y2549
X8311Y8249
X9101Y8249
X9881Y8249
X10671Y8249
X11461Y8249
X12251Y8249
X13031Y8249
X13821Y8249
T03
X2959Y3380
X1363Y3380
T04
X16661Y3014
X18036Y3014
X18036Y4014
X16661Y4014
X16661Y5014
X18036Y5014
X18036Y6014
X16661Y6264
X16661Y7264
X21161Y8514
X22161Y8514
X23161Y8514
X16661Y2014
T05
X25911Y5389
X1911Y5389
M30
