G75*
%MOIN*%
%OFA0B0*%
%FSLAX24Y24*%
%IPPOS*%
%LPD*%
%AMOC8*
5,1,8,0,0,1.08239X$1,22.5*
%
%ADD10C,0.0000*%
%ADD11C,0.0020*%
%ADD12C,0.0170*%
%ADD13C,0.0120*%
%ADD14C,0.0360*%
%ADD15C,0.0060*%
%ADD16R,0.0140X0.0560*%
%ADD17R,0.0560X0.0140*%
%ADD18C,0.0040*%
%ADD19R,0.0295X0.0571*%
%ADD20C,0.0050*%
%ADD21R,0.0571X0.0295*%
%ADD22R,0.0669X0.0295*%
%ADD23R,0.0079X0.0866*%
%ADD24R,0.0374X0.1220*%
%ADD25C,0.0080*%
%ADD26R,0.0148X0.0148*%
%ADD27R,0.0193X0.0433*%
%ADD28C,0.0030*%
%ADD29R,0.0295X0.0669*%
D10*
X000161Y001451D02*
X000161Y009322D01*
X027656Y009322D01*
X027656Y006514D01*
X028036Y006514D01*
X028036Y006764D01*
X029911Y006764D01*
X029911Y004014D01*
X028036Y004014D01*
X028036Y004264D01*
X027661Y004264D01*
X027656Y001451D01*
X000161Y001451D01*
X001196Y003380D02*
X001198Y003405D01*
X001204Y003430D01*
X001213Y003454D01*
X001226Y003476D01*
X001243Y003496D01*
X001262Y003513D01*
X001283Y003527D01*
X001307Y003537D01*
X001331Y003544D01*
X001357Y003547D01*
X001382Y003546D01*
X001407Y003541D01*
X001431Y003532D01*
X001454Y003520D01*
X001474Y003505D01*
X001492Y003486D01*
X001507Y003465D01*
X001518Y003442D01*
X001526Y003418D01*
X001530Y003393D01*
X001530Y003367D01*
X001526Y003342D01*
X001518Y003318D01*
X001507Y003295D01*
X001492Y003274D01*
X001474Y003255D01*
X001454Y003240D01*
X001431Y003228D01*
X001407Y003219D01*
X001382Y003214D01*
X001357Y003213D01*
X001331Y003216D01*
X001307Y003223D01*
X001283Y003233D01*
X001262Y003247D01*
X001243Y003264D01*
X001226Y003284D01*
X001213Y003306D01*
X001204Y003330D01*
X001198Y003355D01*
X001196Y003380D01*
X002792Y003380D02*
X002794Y003405D01*
X002800Y003430D01*
X002809Y003454D01*
X002822Y003476D01*
X002839Y003496D01*
X002858Y003513D01*
X002879Y003527D01*
X002903Y003537D01*
X002927Y003544D01*
X002953Y003547D01*
X002978Y003546D01*
X003003Y003541D01*
X003027Y003532D01*
X003050Y003520D01*
X003070Y003505D01*
X003088Y003486D01*
X003103Y003465D01*
X003114Y003442D01*
X003122Y003418D01*
X003126Y003393D01*
X003126Y003367D01*
X003122Y003342D01*
X003114Y003318D01*
X003103Y003295D01*
X003088Y003274D01*
X003070Y003255D01*
X003050Y003240D01*
X003027Y003228D01*
X003003Y003219D01*
X002978Y003214D01*
X002953Y003213D01*
X002927Y003216D01*
X002903Y003223D01*
X002879Y003233D01*
X002858Y003247D01*
X002839Y003264D01*
X002822Y003284D01*
X002809Y003306D01*
X002800Y003330D01*
X002794Y003355D01*
X002792Y003380D01*
D11*
X005158Y002332D02*
X005158Y002296D01*
X005195Y002259D01*
X005269Y002259D01*
X005305Y002296D01*
X005305Y002332D01*
X005269Y002369D01*
X005195Y002369D01*
X005158Y002332D01*
X005195Y002259D02*
X005158Y002222D01*
X005158Y002185D01*
X005195Y002149D01*
X005269Y002149D01*
X005305Y002185D01*
X005305Y002222D01*
X005269Y002259D01*
X005379Y002332D02*
X005416Y002369D01*
X005490Y002369D01*
X005526Y002332D01*
X005526Y002185D01*
X005490Y002149D01*
X005416Y002149D01*
X005379Y002185D01*
X009225Y003784D02*
X009372Y003784D01*
X009225Y003931D01*
X009225Y003967D01*
X009262Y004004D01*
X009336Y004004D01*
X009372Y003967D01*
X009446Y003967D02*
X009483Y004004D01*
X009557Y004004D01*
X009593Y003967D01*
X009593Y003820D01*
X009557Y003784D01*
X009483Y003784D01*
X009446Y003820D01*
X010475Y003629D02*
X010549Y003592D01*
X010622Y003519D01*
X010512Y003519D01*
X010475Y003482D01*
X010475Y003445D01*
X010512Y003409D01*
X010586Y003409D01*
X010622Y003445D01*
X010622Y003519D01*
X010696Y003519D02*
X010733Y003482D01*
X010843Y003482D01*
X010770Y003482D02*
X010696Y003409D01*
X010696Y003519D02*
X010696Y003592D01*
X010733Y003629D01*
X010843Y003629D01*
X010843Y003409D01*
X011350Y003592D02*
X011497Y003445D01*
X011497Y003409D01*
X011571Y003409D02*
X011645Y003482D01*
X011608Y003482D02*
X011718Y003482D01*
X011718Y003409D02*
X011718Y003629D01*
X011608Y003629D01*
X011571Y003592D01*
X011571Y003519D01*
X011608Y003482D01*
X011497Y003629D02*
X011350Y003629D01*
X011350Y003592D01*
X012350Y003607D02*
X012350Y003570D01*
X012387Y003534D01*
X012461Y003534D01*
X012497Y003570D01*
X012497Y003607D01*
X012461Y003644D01*
X012387Y003644D01*
X012350Y003607D01*
X012387Y003644D02*
X012350Y003681D01*
X012350Y003717D01*
X012387Y003754D01*
X012461Y003754D01*
X012497Y003717D01*
X012497Y003681D01*
X012461Y003644D01*
X012571Y003644D02*
X012608Y003607D01*
X012718Y003607D01*
X012645Y003607D02*
X012571Y003534D01*
X012571Y003644D02*
X012571Y003717D01*
X012608Y003754D01*
X012718Y003754D01*
X012718Y003534D01*
X013225Y003570D02*
X013225Y003717D01*
X013262Y003754D01*
X013336Y003754D01*
X013372Y003717D01*
X013372Y003681D01*
X013336Y003644D01*
X013225Y003644D01*
X013225Y003570D02*
X013262Y003534D01*
X013336Y003534D01*
X013372Y003570D01*
X013446Y003534D02*
X013520Y003607D01*
X013483Y003607D02*
X013593Y003607D01*
X013593Y003534D02*
X013593Y003754D01*
X013483Y003754D01*
X013446Y003717D01*
X013446Y003644D01*
X013483Y003607D01*
X019562Y003582D02*
X019709Y003435D01*
X019673Y003399D01*
X019599Y003399D01*
X019562Y003435D01*
X019562Y003582D01*
X019599Y003619D01*
X019673Y003619D01*
X019709Y003582D01*
X019709Y003435D01*
X019783Y003399D02*
X019930Y003399D01*
X019857Y003399D02*
X019857Y003619D01*
X019930Y003546D01*
X020004Y003582D02*
X020041Y003619D01*
X020115Y003619D01*
X020151Y003582D01*
X020151Y003435D01*
X020115Y003399D01*
X020041Y003399D01*
X020004Y003435D01*
X028321Y004798D02*
X028321Y005979D01*
X029502Y005979D01*
X029502Y004798D01*
X028321Y004798D01*
X029187Y005034D02*
X029187Y005743D01*
X029423Y005743D01*
X029423Y005034D01*
X029187Y005034D01*
X029226Y005074D02*
X029384Y005074D01*
X029384Y005704D01*
X029226Y005704D01*
X029226Y005074D01*
X028394Y005782D02*
X028396Y005804D01*
X028401Y005824D01*
X028411Y005844D01*
X028423Y005862D01*
X028438Y005877D01*
X028456Y005889D01*
X028476Y005899D01*
X028496Y005904D01*
X028518Y005906D01*
X028540Y005904D01*
X028560Y005899D01*
X028580Y005889D01*
X028598Y005877D01*
X028613Y005862D01*
X028625Y005844D01*
X028635Y005824D01*
X028640Y005804D01*
X028642Y005782D01*
X028640Y005760D01*
X028635Y005740D01*
X028625Y005720D01*
X028613Y005702D01*
X028598Y005687D01*
X028580Y005675D01*
X028560Y005665D01*
X028540Y005660D01*
X028518Y005658D01*
X028496Y005660D01*
X028476Y005665D01*
X028456Y005675D01*
X028438Y005687D01*
X028423Y005702D01*
X028411Y005720D01*
X028401Y005740D01*
X028396Y005760D01*
X028394Y005782D01*
X023985Y008154D02*
X023948Y008118D01*
X023802Y008118D01*
X023765Y008154D01*
X023765Y008228D01*
X023802Y008264D01*
X023875Y008264D01*
X023875Y008191D01*
X023948Y008264D02*
X023985Y008228D01*
X023985Y008154D01*
X023985Y008338D02*
X023765Y008338D01*
X023765Y008485D02*
X023985Y008338D01*
X023985Y008485D02*
X023765Y008485D01*
X023765Y008559D02*
X023765Y008670D01*
X023802Y008706D01*
X023948Y008706D01*
X023985Y008670D01*
X023985Y008559D01*
X023765Y008559D01*
X018433Y007707D02*
X018433Y007560D01*
X018396Y007524D01*
X018322Y007524D01*
X018286Y007560D01*
X018212Y007524D02*
X018065Y007524D01*
X018138Y007524D02*
X018138Y007744D01*
X018212Y007671D01*
X018286Y007707D02*
X018322Y007744D01*
X018396Y007744D01*
X018433Y007707D01*
X017991Y007744D02*
X017991Y007634D01*
X017917Y007671D01*
X017880Y007671D01*
X017844Y007634D01*
X017844Y007560D01*
X017880Y007524D01*
X017954Y007524D01*
X017991Y007560D01*
X017991Y007744D02*
X017844Y007744D01*
X015218Y007717D02*
X015218Y007570D01*
X015182Y007534D01*
X015108Y007534D01*
X015071Y007570D01*
X014997Y007570D02*
X014961Y007534D01*
X014887Y007534D01*
X014850Y007570D01*
X014850Y007717D01*
X014887Y007754D01*
X014961Y007754D01*
X014997Y007717D01*
X014997Y007681D01*
X014961Y007644D01*
X014850Y007644D01*
X015071Y007717D02*
X015108Y007754D01*
X015182Y007754D01*
X015218Y007717D01*
X014468Y007754D02*
X014468Y007534D01*
X014468Y007607D02*
X014358Y007607D01*
X014321Y007644D01*
X014321Y007717D01*
X014358Y007754D01*
X014468Y007754D01*
X014247Y007754D02*
X014247Y007644D01*
X014174Y007681D01*
X014137Y007681D01*
X014100Y007644D01*
X014100Y007570D01*
X014137Y007534D01*
X014211Y007534D01*
X014247Y007570D01*
X014321Y007534D02*
X014395Y007607D01*
X014247Y007754D02*
X014100Y007754D01*
X013439Y007754D02*
X013329Y007754D01*
X013292Y007717D01*
X013292Y007644D01*
X013329Y007607D01*
X013439Y007607D01*
X013366Y007607D02*
X013292Y007534D01*
X013218Y007534D02*
X013071Y007534D01*
X013145Y007534D02*
X013145Y007754D01*
X013218Y007681D01*
X012997Y007717D02*
X012997Y007570D01*
X012850Y007717D01*
X012850Y007570D01*
X012887Y007534D01*
X012961Y007534D01*
X012997Y007570D01*
X012997Y007717D02*
X012961Y007754D01*
X012887Y007754D01*
X012850Y007717D01*
X012564Y007754D02*
X012454Y007754D01*
X012417Y007717D01*
X012417Y007644D01*
X012454Y007607D01*
X012564Y007607D01*
X012491Y007607D02*
X012417Y007534D01*
X012343Y007534D02*
X012196Y007534D01*
X012270Y007534D02*
X012270Y007754D01*
X012343Y007681D01*
X012122Y007644D02*
X012049Y007681D01*
X012012Y007681D01*
X011975Y007644D01*
X011975Y007570D01*
X012012Y007534D01*
X012086Y007534D01*
X012122Y007570D01*
X012122Y007644D02*
X012122Y007754D01*
X011975Y007754D01*
X012564Y007754D02*
X012564Y007534D01*
X013439Y007534D02*
X013439Y007754D01*
X010812Y007758D02*
X010775Y007721D01*
X010702Y007721D01*
X010665Y007758D01*
X010591Y007831D02*
X010481Y007941D01*
X010481Y007721D01*
X010444Y007831D02*
X010591Y007831D01*
X010665Y007905D02*
X010702Y007941D01*
X010775Y007941D01*
X010812Y007905D01*
X010812Y007758D01*
X009999Y007758D02*
X009963Y007721D01*
X009889Y007721D01*
X009853Y007758D01*
X009778Y007758D02*
X009742Y007721D01*
X009668Y007721D01*
X009632Y007758D01*
X009632Y007795D01*
X009668Y007831D01*
X009705Y007831D01*
X009668Y007831D02*
X009632Y007868D01*
X009632Y007905D01*
X009668Y007941D01*
X009742Y007941D01*
X009778Y007905D01*
X009853Y007905D02*
X009889Y007941D01*
X009963Y007941D01*
X009999Y007905D01*
X009999Y007758D01*
X007214Y008336D02*
X007214Y008556D01*
X007104Y008556D01*
X007067Y008520D01*
X007067Y008446D01*
X007104Y008410D01*
X007214Y008410D01*
X007140Y008410D02*
X007067Y008336D01*
X006993Y008373D02*
X006956Y008336D01*
X006883Y008336D01*
X006846Y008373D01*
X006846Y008410D01*
X006883Y008446D01*
X006919Y008446D01*
X006883Y008446D02*
X006846Y008483D01*
X006846Y008520D01*
X006883Y008556D01*
X006956Y008556D01*
X006993Y008520D01*
X006307Y006629D02*
X006343Y006592D01*
X006343Y006445D01*
X006307Y006409D01*
X006233Y006409D01*
X006196Y006445D01*
X006122Y006445D02*
X006122Y006409D01*
X006122Y006445D02*
X005975Y006592D01*
X005975Y006629D01*
X006122Y006629D01*
X006196Y006592D02*
X006233Y006629D01*
X006307Y006629D01*
X008663Y005831D02*
X008810Y005831D01*
X008700Y005941D01*
X008700Y005721D01*
X008884Y005721D02*
X008957Y005795D01*
X008921Y005795D02*
X009031Y005795D01*
X009031Y005721D02*
X009031Y005941D01*
X008921Y005941D01*
X008884Y005905D01*
X008884Y005831D01*
X008921Y005795D01*
D12*
X005820Y007852D02*
X005820Y008739D01*
X006264Y008296D02*
X005376Y008296D01*
D13*
X005611Y007589D02*
X000411Y007589D01*
X000411Y003189D01*
X005611Y003189D01*
X005611Y004539D01*
X005211Y004539D01*
X005211Y006239D01*
X005611Y006239D01*
X005611Y007589D01*
X006328Y003787D02*
X006328Y002866D01*
X006789Y003327D02*
X005868Y003327D01*
X022211Y003189D02*
X027411Y003189D01*
X027411Y007589D01*
X022211Y007589D01*
X022211Y006239D01*
X022611Y006239D01*
X022611Y004539D01*
X022211Y004539D01*
X022211Y003189D01*
D14*
X021383Y002620D02*
X019928Y002620D01*
X019928Y005995D02*
X021383Y005995D01*
D15*
X014161Y006359D02*
X014161Y006919D01*
X013661Y006919D02*
X013661Y006359D01*
X013286Y006359D02*
X013286Y006919D01*
X012786Y006919D02*
X012786Y006359D01*
X012411Y006359D02*
X012411Y006919D01*
X011911Y006919D02*
X011911Y006359D01*
X009161Y006609D02*
X009161Y007169D01*
X008661Y007169D02*
X008661Y006609D01*
X007566Y007139D02*
X007006Y007139D01*
X007006Y007639D02*
X007566Y007639D01*
X010411Y004919D02*
X010411Y004359D01*
X010911Y004359D02*
X010911Y004919D01*
X011286Y004919D02*
X011286Y004359D01*
X011786Y004359D02*
X011786Y004919D01*
X012161Y004919D02*
X012161Y004359D01*
X012661Y004359D02*
X012661Y004919D01*
X013036Y004919D02*
X013036Y004359D01*
X013536Y004359D02*
X013536Y004919D01*
D16*
X007626Y007389D03*
X006946Y007389D03*
D17*
X008911Y007229D03*
X008911Y006549D03*
X012161Y006299D03*
X013036Y006299D03*
X013911Y006299D03*
X013911Y006979D03*
X013036Y006979D03*
X012161Y006979D03*
X012411Y004979D03*
X011536Y004979D03*
X010661Y004979D03*
X010661Y004299D03*
X011536Y004299D03*
X012411Y004299D03*
X013286Y004299D03*
X013286Y004979D03*
D18*
X009546Y005039D02*
X009546Y004739D01*
X009026Y004749D02*
X009026Y005039D01*
X007791Y006204D02*
X007031Y006204D01*
X007031Y006824D02*
X007791Y006824D01*
X009476Y007144D02*
X009476Y006384D01*
X010096Y006384D02*
X010096Y007144D01*
X010351Y007144D02*
X010351Y006384D01*
X010971Y006384D02*
X010971Y007144D01*
X014526Y006789D02*
X014526Y006489D01*
X015046Y006489D02*
X015046Y006779D01*
X017539Y007841D02*
X019783Y007841D01*
X019783Y009061D01*
X017539Y009061D01*
X017539Y007841D01*
X019651Y004664D02*
X019651Y004364D01*
X020171Y004364D02*
X020171Y004654D01*
X027805Y005142D02*
X027839Y005109D01*
X027805Y005142D02*
X027805Y005209D01*
X027839Y005242D01*
X027872Y005242D01*
X027906Y005209D01*
X027906Y005142D01*
X027939Y005109D01*
X027972Y005109D01*
X028006Y005142D01*
X028006Y005209D01*
X027972Y005242D01*
X028006Y005330D02*
X027805Y005330D01*
X027805Y005463D02*
X028006Y005463D01*
X027939Y005551D02*
X028006Y005618D01*
X027805Y005618D01*
X027805Y005684D02*
X027805Y005551D01*
X027805Y005463D02*
X028006Y005330D01*
X006686Y002649D02*
X006396Y002649D01*
X006386Y002129D02*
X006686Y002129D01*
D19*
X006824Y002388D03*
X006254Y002388D03*
D20*
X000411Y001889D02*
X027411Y001889D01*
X027411Y008889D01*
X000411Y008889D01*
X000411Y001889D01*
D21*
X009287Y004606D03*
X009287Y005176D03*
X014786Y006351D03*
X014786Y006921D03*
X019911Y004796D03*
X019911Y004226D03*
D22*
X010661Y006241D03*
X009786Y006241D03*
X009787Y007286D03*
X010662Y007286D03*
D23*
X017520Y008451D03*
X019803Y008451D03*
D24*
X019596Y008451D03*
D25*
X028222Y006078D02*
X028321Y006078D01*
X028222Y006078D02*
X028222Y004700D01*
X028321Y004700D01*
X029502Y004700D02*
X029600Y004700D01*
X029600Y006078D01*
X029502Y006078D01*
X008606Y005262D02*
X008606Y005065D01*
X006716Y005065D01*
X006716Y003766D01*
X008606Y003766D01*
X008606Y005065D01*
X008606Y005262D02*
X006716Y005262D01*
X006716Y005065D01*
D26*
X028148Y005955D03*
D27*
X008411Y005518D03*
X007911Y005518D03*
X007411Y005518D03*
X006911Y005518D03*
X006911Y003510D03*
X007411Y003510D03*
X007911Y003510D03*
X008411Y003510D03*
D28*
X008182Y004159D02*
X008085Y004159D01*
X008134Y004159D02*
X008134Y004449D01*
X008182Y004449D02*
X008085Y004449D01*
X007986Y004401D02*
X007986Y004207D01*
X007937Y004159D01*
X007840Y004159D01*
X007792Y004207D01*
X007691Y004159D02*
X007497Y004159D01*
X007594Y004159D02*
X007594Y004449D01*
X007691Y004352D01*
X007792Y004401D02*
X007840Y004449D01*
X007937Y004449D01*
X007986Y004401D01*
D29*
X007934Y006513D03*
X006889Y006514D03*
M02*
