G75*
%MOIN*%
%OFA0B0*%
%FSLAX24Y24*%
%IPPOS*%
%LPD*%
%AMOC8*
5,1,8,0,0,1.08239X$1,22.5*
%
%ADD10R,0.0562X0.0680*%
%ADD11R,0.0680X0.0562*%
%ADD12R,0.0562X0.0641*%
%ADD13OC8,0.1450*%
%ADD14R,0.0759X0.1467*%
%ADD15R,0.0450X0.0450*%
%ADD16C,0.0385*%
%ADD17C,0.0650*%
%ADD18R,0.0641X0.0562*%
%ADD19R,0.0759X0.0680*%
%ADD20R,0.0995X0.0995*%
%ADD21R,0.0207X0.0444*%
%ADD22R,0.0984X0.0591*%
%ADD23R,0.0286X0.0916*%
%ADD24R,0.0680X0.0759*%
%ADD25C,0.0347*%
D10*
X006912Y007389D03*
X007660Y007389D03*
D11*
X008911Y007263D03*
X008911Y006515D03*
X012161Y006265D03*
X013036Y006265D03*
X013911Y006265D03*
X013911Y007013D03*
X013036Y007013D03*
X012161Y007013D03*
X012411Y005013D03*
X011536Y005013D03*
X010661Y005013D03*
X010661Y004265D03*
X011536Y004265D03*
X012411Y004265D03*
X013286Y004265D03*
X013286Y005013D03*
D12*
X006910Y002389D03*
X006162Y002389D03*
D13*
X001911Y005389D03*
X025911Y005389D03*
D14*
X022111Y005389D03*
X005711Y005389D03*
D15*
X008311Y008249D03*
X009101Y008249D03*
X009881Y008249D03*
X010671Y008249D03*
X011461Y008249D03*
X012251Y008249D03*
X013031Y008249D03*
X013821Y008249D03*
X013821Y002549D03*
X013031Y002549D03*
X012251Y002549D03*
X011461Y002549D03*
X010671Y002549D03*
X009881Y002549D03*
X009101Y002549D03*
X008311Y002549D03*
D16*
X002959Y003380D03*
X001363Y003380D03*
D17*
X016361Y003014D02*
X016961Y003014D01*
X017736Y003014D02*
X018336Y003014D01*
X018336Y004014D02*
X017736Y004014D01*
X016961Y004014D02*
X016361Y004014D01*
X016361Y005014D02*
X016961Y005014D01*
X017736Y005014D02*
X018336Y005014D01*
X018336Y006014D02*
X017736Y006014D01*
X016961Y006264D02*
X016361Y006264D01*
X016361Y007264D02*
X016961Y007264D01*
X021161Y008214D02*
X021161Y008814D01*
X022161Y008814D02*
X022161Y008214D01*
X023161Y008214D02*
X023161Y008814D01*
X016961Y002014D02*
X016361Y002014D01*
D18*
X019911Y004140D03*
X019911Y004888D03*
X014786Y006265D03*
X014786Y007013D03*
X009286Y005263D03*
X009286Y004515D03*
D19*
X009786Y006213D03*
X010661Y006213D03*
X010661Y007315D03*
X009786Y007315D03*
D20*
X017677Y008451D03*
X019646Y008451D03*
D21*
X028518Y005990D03*
X028911Y005990D03*
X029305Y005990D03*
X029305Y004788D03*
X028911Y004788D03*
X028518Y004788D03*
D22*
X028911Y005389D03*
D23*
X008411Y005537D03*
X007911Y005537D03*
X007411Y005537D03*
X006911Y005537D03*
X006911Y003490D03*
X007411Y003490D03*
X007911Y003490D03*
X008411Y003490D03*
D24*
X007962Y006514D03*
X006860Y006514D03*
D25*
X004224Y001826D03*
X004224Y002170D03*
X004224Y002514D03*
X004224Y002826D03*
X007505Y002795D03*
X007818Y002795D03*
X007818Y002483D03*
X007505Y002483D03*
X007505Y002170D03*
X007818Y002170D03*
X007818Y001858D03*
X007505Y001858D03*
X008943Y003045D03*
X009193Y003295D03*
X009443Y003545D03*
X010161Y003764D03*
X009661Y003826D03*
X009849Y004108D03*
X010005Y004389D03*
X010005Y004701D03*
X010005Y005014D03*
X010005Y005326D03*
X009849Y005608D03*
X010161Y005608D03*
X010474Y005608D03*
X010786Y005608D03*
X011099Y005608D03*
X007224Y004733D03*
X006974Y004608D03*
X006693Y004639D03*
X006693Y004920D03*
X006974Y004889D03*
X005068Y005389D03*
X004786Y005389D03*
X008786Y003514D03*
X011036Y003764D03*
X011911Y003764D03*
X014880Y003670D03*
X015193Y003670D03*
X015193Y003358D03*
X014880Y003358D03*
X015193Y005264D03*
X015349Y006014D03*
X015349Y006295D03*
X015630Y006295D03*
X011536Y007389D03*
X007786Y008045D03*
X007474Y008045D03*
X007161Y008045D03*
X007161Y008358D03*
X006849Y008358D03*
X007474Y008358D03*
X007786Y008358D03*
X007786Y008670D03*
X007474Y008670D03*
X007161Y008670D03*
X006849Y008670D03*
X004818Y008951D03*
X004505Y008951D03*
X001443Y008983D03*
X001130Y008983D03*
X000818Y008983D03*
X000505Y008983D03*
X000505Y008670D03*
X000505Y008358D03*
X000505Y008045D03*
X014536Y008951D03*
X014849Y008951D03*
X015161Y008951D03*
X015474Y008951D03*
X015786Y008951D03*
X020474Y006639D03*
X027286Y008014D03*
X027286Y008358D03*
X027286Y008670D03*
X027286Y008983D03*
X026974Y008983D03*
X026661Y008983D03*
X026349Y008983D03*
X028911Y006420D03*
X027630Y005920D03*
X027630Y004858D03*
X028911Y004358D03*
X027286Y002764D03*
X027286Y002420D03*
X027286Y002108D03*
X027286Y001795D03*
X026974Y001795D03*
X026661Y001795D03*
X026349Y001795D03*
M02*
