G75*
%MOIN*%
%OFA0B0*%
%FSLAX24Y24*%
%IPPOS*%
%LPD*%
%AMOC8*
5,1,8,0,0,1.08239X$1,22.5*
%
%ADD10C,0.0000*%
%ADD11C,0.0020*%
%ADD12C,0.0040*%
%ADD13R,0.0295X0.0571*%
%ADD14C,0.0060*%
%ADD15R,0.0256X0.0197*%
%ADD16R,0.0571X0.0295*%
%ADD17R,0.0140X0.0560*%
%ADD18R,0.0197X0.0128*%
%ADD19R,0.0098X0.0059*%
%ADD20R,0.0069X0.0157*%
%ADD21R,0.0079X0.0079*%
%ADD22R,0.0118X0.0118*%
%ADD23R,0.0030X0.0128*%
%ADD24R,0.0560X0.0140*%
%ADD25C,0.0050*%
%ADD26C,0.0120*%
%ADD27R,0.0200X0.0200*%
%ADD28C,0.0080*%
%ADD29R,0.0148X0.0148*%
%ADD30R,0.0866X0.0079*%
%ADD31R,0.1220X0.0374*%
D10*
X000161Y001451D02*
X000161Y009322D01*
X027656Y009322D01*
X027656Y006514D01*
X028036Y006514D01*
X028036Y006764D01*
X029911Y006764D01*
X029911Y004014D01*
X028036Y004014D01*
X028036Y004264D01*
X027661Y004264D01*
X027656Y001451D01*
X000161Y001451D01*
X001531Y003262D02*
X001531Y003498D01*
X001196Y003380D02*
X001198Y003405D01*
X001204Y003430D01*
X001213Y003454D01*
X001226Y003476D01*
X001243Y003496D01*
X001262Y003513D01*
X001283Y003527D01*
X001307Y003537D01*
X001331Y003544D01*
X001357Y003547D01*
X001382Y003546D01*
X001407Y003541D01*
X001431Y003532D01*
X001454Y003520D01*
X001474Y003505D01*
X001492Y003486D01*
X001507Y003465D01*
X001518Y003442D01*
X001526Y003418D01*
X001530Y003393D01*
X001530Y003367D01*
X001526Y003342D01*
X001518Y003318D01*
X001507Y003295D01*
X001492Y003274D01*
X001474Y003255D01*
X001454Y003240D01*
X001431Y003228D01*
X001407Y003219D01*
X001382Y003214D01*
X001357Y003213D01*
X001331Y003216D01*
X001307Y003223D01*
X001283Y003233D01*
X001262Y003247D01*
X001243Y003264D01*
X001226Y003284D01*
X001213Y003306D01*
X001204Y003330D01*
X001198Y003355D01*
X001196Y003380D01*
X002792Y003380D02*
X002794Y003405D01*
X002800Y003430D01*
X002809Y003454D01*
X002822Y003476D01*
X002839Y003496D01*
X002858Y003513D01*
X002879Y003527D01*
X002903Y003537D01*
X002927Y003544D01*
X002953Y003547D01*
X002978Y003546D01*
X003003Y003541D01*
X003027Y003532D01*
X003050Y003520D01*
X003070Y003505D01*
X003088Y003486D01*
X003103Y003465D01*
X003114Y003442D01*
X003122Y003418D01*
X003126Y003393D01*
X003126Y003367D01*
X003122Y003342D01*
X003114Y003318D01*
X003103Y003295D01*
X003088Y003274D01*
X003070Y003255D01*
X003050Y003240D01*
X003027Y003228D01*
X003003Y003219D01*
X002978Y003214D01*
X002953Y003213D01*
X002927Y003216D01*
X002903Y003223D01*
X002879Y003233D01*
X002858Y003247D01*
X002839Y003264D01*
X002822Y003284D01*
X002809Y003306D01*
X002800Y003330D01*
X002794Y003355D01*
X002792Y003380D01*
D11*
X001133Y004093D02*
X000986Y004093D01*
X001059Y004093D02*
X001059Y004313D01*
X000986Y004239D01*
X000912Y004313D02*
X000912Y004129D01*
X000875Y004093D01*
X000802Y004093D01*
X000765Y004129D01*
X000765Y004313D01*
X003703Y004310D02*
X003739Y004274D01*
X003813Y004274D01*
X003849Y004310D01*
X003923Y004274D02*
X004070Y004274D01*
X003997Y004274D02*
X003997Y004494D01*
X003923Y004421D01*
X003849Y004457D02*
X003813Y004494D01*
X003739Y004494D01*
X003703Y004457D01*
X003703Y004310D01*
X004144Y004274D02*
X004291Y004421D01*
X004291Y004457D01*
X004255Y004494D01*
X004181Y004494D01*
X004144Y004457D01*
X004144Y004274D02*
X004291Y004274D01*
X007627Y005100D02*
X007847Y005100D01*
X007847Y005246D01*
X007810Y005321D02*
X007847Y005357D01*
X007847Y005431D01*
X007810Y005467D01*
X007773Y005467D01*
X007737Y005431D01*
X007737Y005357D01*
X007700Y005321D01*
X007663Y005321D01*
X007627Y005357D01*
X007627Y005431D01*
X007663Y005467D01*
X007627Y005542D02*
X007627Y005652D01*
X007663Y005688D01*
X007737Y005688D01*
X007773Y005652D01*
X007773Y005542D01*
X007847Y005542D02*
X007627Y005542D01*
X007663Y005763D02*
X007627Y005799D01*
X007627Y005873D01*
X007663Y005909D01*
X007810Y005763D01*
X007847Y005799D01*
X007847Y005873D01*
X007810Y005909D01*
X007663Y005909D01*
X007627Y005984D02*
X007627Y006130D01*
X007663Y006130D01*
X007810Y005984D01*
X007847Y005984D01*
X007503Y006164D02*
X007467Y006128D01*
X007393Y006128D01*
X007357Y006164D01*
X007282Y006128D02*
X007136Y006128D01*
X007209Y006128D02*
X007209Y006348D01*
X007136Y006274D01*
X007061Y006311D02*
X007061Y006238D01*
X007025Y006201D01*
X006915Y006201D01*
X006988Y006201D02*
X007061Y006128D01*
X006915Y006128D02*
X006915Y006348D01*
X007025Y006348D01*
X007061Y006311D01*
X007357Y006311D02*
X007393Y006348D01*
X007467Y006348D01*
X007503Y006311D01*
X007503Y006274D01*
X007467Y006238D01*
X007503Y006201D01*
X007503Y006164D01*
X007467Y006238D02*
X007430Y006238D01*
X007198Y005931D02*
X007124Y005895D01*
X007051Y005821D01*
X007161Y005821D01*
X007198Y005785D01*
X007198Y005748D01*
X007161Y005711D01*
X007087Y005711D01*
X007051Y005748D01*
X007051Y005821D01*
X006977Y005711D02*
X006830Y005711D01*
X006903Y005711D02*
X006903Y005931D01*
X006830Y005858D01*
X006756Y005895D02*
X006719Y005931D01*
X006645Y005931D01*
X006609Y005895D01*
X006609Y005748D01*
X006645Y005711D01*
X006719Y005711D01*
X006756Y005748D01*
X007663Y005763D02*
X007810Y005763D01*
X007627Y005246D02*
X007627Y005100D01*
X007737Y005100D02*
X007737Y005173D01*
X004635Y005868D02*
X004488Y005868D01*
X004562Y005868D02*
X004562Y006088D01*
X004488Y006014D01*
X004414Y005868D02*
X004267Y005868D01*
X004341Y005868D02*
X004341Y006088D01*
X004267Y006014D01*
X004193Y005978D02*
X004156Y005941D01*
X004046Y005941D01*
X004046Y005868D02*
X004046Y006088D01*
X004156Y006088D01*
X004193Y006051D01*
X004193Y005978D01*
X004120Y005941D02*
X004193Y005868D01*
X003472Y005815D02*
X003325Y005815D01*
X003399Y005815D02*
X003399Y006035D01*
X003325Y005962D01*
X003178Y006035D02*
X003104Y005962D01*
X003030Y005998D02*
X002993Y006035D01*
X002920Y006035D01*
X002883Y005998D01*
X002883Y005852D01*
X002920Y005815D01*
X002993Y005815D01*
X003030Y005852D01*
X003104Y005815D02*
X003251Y005815D01*
X003178Y005815D02*
X003178Y006035D01*
X003064Y006899D02*
X002917Y006899D01*
X002990Y006899D02*
X002990Y007119D01*
X002917Y007046D01*
X002769Y007119D02*
X002769Y006899D01*
X002696Y006899D02*
X002843Y006899D01*
X002696Y007046D02*
X002769Y007119D01*
X002622Y007082D02*
X002585Y007119D01*
X002512Y007119D01*
X002475Y007082D01*
X002475Y006935D01*
X002512Y006899D01*
X002585Y006899D01*
X002622Y006935D01*
X002401Y006899D02*
X002328Y006899D01*
X002364Y006899D02*
X002364Y007119D01*
X002328Y007119D02*
X002401Y007119D01*
X004765Y007298D02*
X004765Y007408D01*
X004802Y007445D01*
X004875Y007445D01*
X004912Y007408D01*
X004912Y007298D01*
X004985Y007298D02*
X004765Y007298D01*
X004912Y007372D02*
X004985Y007445D01*
X004985Y007519D02*
X004985Y007666D01*
X004985Y007593D02*
X004765Y007593D01*
X004838Y007519D01*
X004875Y007740D02*
X004875Y007887D01*
X004985Y007850D02*
X004765Y007850D01*
X004875Y007740D01*
X004917Y008111D02*
X004770Y008111D01*
X004734Y008147D01*
X004734Y008221D01*
X004770Y008258D01*
X004807Y008332D02*
X004734Y008405D01*
X004954Y008405D01*
X004954Y008332D02*
X004954Y008479D01*
X004844Y008553D02*
X004844Y008700D01*
X004954Y008663D02*
X004734Y008663D01*
X004844Y008553D01*
X004222Y008721D02*
X004075Y008721D01*
X004149Y008721D02*
X004149Y008941D01*
X004075Y008868D01*
X003928Y008941D02*
X003928Y008721D01*
X004001Y008721D02*
X003854Y008721D01*
X003780Y008758D02*
X003743Y008721D01*
X003633Y008721D01*
X003633Y008941D01*
X003743Y008941D01*
X003780Y008905D01*
X003780Y008758D01*
X003854Y008868D02*
X003928Y008941D01*
X003412Y008941D02*
X003412Y008721D01*
X003559Y008721D01*
X004917Y008258D02*
X004954Y008221D01*
X004954Y008147D01*
X004917Y008111D01*
X001573Y008086D02*
X001426Y008086D01*
X001573Y008233D01*
X001573Y008270D01*
X001536Y008306D01*
X001462Y008306D01*
X001426Y008270D01*
X001278Y008306D02*
X001278Y008086D01*
X001205Y008086D02*
X001352Y008086D01*
X001205Y008233D02*
X001278Y008306D01*
X001131Y008270D02*
X001131Y008196D01*
X001094Y008160D01*
X000984Y008160D01*
X001057Y008160D02*
X001131Y008086D01*
X000984Y008086D02*
X000984Y008306D01*
X001094Y008306D01*
X001131Y008270D01*
X006609Y006814D02*
X006829Y006814D01*
X006829Y006887D02*
X006829Y006740D01*
X006792Y006666D02*
X006829Y006629D01*
X006829Y006556D01*
X006792Y006519D01*
X006645Y006519D01*
X006609Y006556D01*
X006609Y006629D01*
X006645Y006666D01*
X006682Y006740D02*
X006609Y006814D01*
X017234Y005788D02*
X017234Y005714D01*
X017270Y005678D01*
X017417Y005678D01*
X017454Y005714D01*
X017454Y005788D01*
X017417Y005825D01*
X017270Y005825D02*
X017234Y005788D01*
X017270Y005604D02*
X017234Y005567D01*
X017234Y005493D01*
X017270Y005457D01*
X017417Y005457D01*
X017454Y005493D01*
X017454Y005567D01*
X017417Y005604D01*
X017380Y005383D02*
X017234Y005383D01*
X017380Y005383D02*
X017454Y005309D01*
X017380Y005236D01*
X017234Y005236D01*
X018694Y005248D02*
X018694Y005102D01*
X018730Y005065D01*
X018804Y005065D01*
X018840Y005102D01*
X018840Y005175D01*
X018767Y005175D01*
X018840Y005248D02*
X018804Y005285D01*
X018730Y005285D01*
X018694Y005248D01*
X018915Y005285D02*
X019025Y005285D01*
X019061Y005248D01*
X019061Y005175D01*
X019025Y005138D01*
X018915Y005138D01*
X018915Y005065D02*
X018915Y005285D01*
X019136Y005285D02*
X019209Y005285D01*
X019172Y005285D02*
X019172Y005065D01*
X019136Y005065D02*
X019209Y005065D01*
X019283Y005102D02*
X019320Y005065D01*
X019393Y005065D01*
X019430Y005102D01*
X019430Y005248D01*
X019393Y005285D01*
X019320Y005285D01*
X019283Y005248D01*
X019283Y005102D01*
X019393Y004925D02*
X019357Y004888D01*
X019393Y004925D02*
X019467Y004925D01*
X019503Y004888D01*
X019503Y004852D01*
X019357Y004705D01*
X019503Y004705D01*
X017516Y003575D02*
X017296Y003428D01*
X017333Y003354D02*
X017406Y003354D01*
X017443Y003317D01*
X017443Y003207D01*
X017443Y003280D02*
X017516Y003354D01*
X017516Y003428D02*
X017296Y003575D01*
X017333Y003354D02*
X017296Y003317D01*
X017296Y003207D01*
X017516Y003207D01*
X017506Y002494D02*
X017359Y002494D01*
X017432Y002494D02*
X017432Y002274D01*
X017580Y002274D02*
X017727Y002494D01*
X017580Y002494D02*
X017727Y002274D01*
X018046Y002332D02*
X018046Y002185D01*
X018083Y002149D01*
X018156Y002149D01*
X018193Y002185D01*
X018193Y002259D01*
X018120Y002259D01*
X018193Y002332D02*
X018156Y002369D01*
X018083Y002369D01*
X018046Y002332D01*
X018267Y002369D02*
X018414Y002149D01*
X018414Y002369D01*
X018488Y002369D02*
X018598Y002369D01*
X018635Y002332D01*
X018635Y002185D01*
X018598Y002149D01*
X018488Y002149D01*
X018488Y002369D01*
X018267Y002369D02*
X018267Y002149D01*
X018073Y002020D02*
X018036Y002056D01*
X017926Y002056D01*
X017926Y001836D01*
X018036Y001836D01*
X018073Y001873D01*
X018073Y002020D01*
X017852Y002056D02*
X017852Y001836D01*
X017705Y002056D01*
X017705Y001836D01*
X017631Y001873D02*
X017631Y001946D01*
X017557Y001946D01*
X017484Y001873D02*
X017520Y001836D01*
X017594Y001836D01*
X017631Y001873D01*
X017484Y001873D02*
X017484Y002020D01*
X017520Y002056D01*
X017594Y002056D01*
X017631Y002020D01*
X023102Y004409D02*
X023102Y004629D01*
X023212Y004629D01*
X023249Y004592D01*
X023249Y004519D01*
X023212Y004482D01*
X023102Y004482D01*
X023175Y004482D02*
X023249Y004409D01*
X023323Y004409D02*
X023470Y004409D01*
X023396Y004409D02*
X023396Y004629D01*
X023323Y004556D01*
X023544Y004519D02*
X023544Y004445D01*
X023581Y004409D01*
X023654Y004409D01*
X023691Y004445D01*
X023691Y004482D01*
X023654Y004519D01*
X023544Y004519D01*
X023617Y004592D01*
X023691Y004629D01*
X019416Y006279D02*
X019380Y006243D01*
X019306Y006243D01*
X019269Y006279D01*
X019269Y006426D01*
X019306Y006463D01*
X019380Y006463D01*
X019416Y006426D01*
X019195Y006426D02*
X019159Y006463D01*
X019085Y006463D01*
X019048Y006426D01*
X019048Y006279D01*
X019085Y006243D01*
X019159Y006243D01*
X019195Y006279D01*
X018974Y006316D02*
X018901Y006243D01*
X018828Y006316D01*
X018828Y006463D01*
X018974Y006463D02*
X018974Y006316D01*
X018128Y006869D02*
X018128Y007089D01*
X018201Y007089D02*
X018054Y007089D01*
X017980Y007052D02*
X017943Y007089D01*
X017870Y007089D01*
X017833Y007052D01*
X017833Y006905D01*
X017870Y006869D01*
X017943Y006869D01*
X017980Y006905D01*
X017980Y007052D01*
X017759Y007052D02*
X017759Y006905D01*
X017722Y006869D01*
X017649Y006869D01*
X017612Y006905D01*
X017612Y007052D01*
X017649Y007089D01*
X017722Y007089D01*
X017759Y007052D01*
X017538Y007052D02*
X017501Y007089D01*
X017391Y007089D01*
X017391Y006869D01*
X017501Y006869D01*
X017538Y006905D01*
X017538Y006942D01*
X017501Y006979D01*
X017391Y006979D01*
X017501Y006979D02*
X017538Y007016D01*
X017538Y007052D01*
X021354Y006973D02*
X021354Y006753D01*
X021354Y006826D02*
X021464Y006826D01*
X021501Y006863D01*
X021501Y006936D01*
X021464Y006973D01*
X021354Y006973D01*
X021575Y006936D02*
X021612Y006973D01*
X021685Y006973D01*
X021722Y006936D01*
X021722Y006899D01*
X021575Y006753D01*
X021722Y006753D01*
X021501Y006753D02*
X021428Y006826D01*
X023234Y007024D02*
X023234Y007244D01*
X023344Y007244D01*
X023381Y007207D01*
X023381Y007134D01*
X023344Y007097D01*
X023234Y007097D01*
X023307Y007097D02*
X023381Y007024D01*
X023455Y007024D02*
X023602Y007024D01*
X023676Y007024D02*
X023676Y007060D01*
X023823Y007207D01*
X023823Y007244D01*
X023676Y007244D01*
X023528Y007244D02*
X023528Y007024D01*
X023455Y007171D02*
X023528Y007244D01*
X023496Y007596D02*
X023532Y007633D01*
X023496Y007596D02*
X023422Y007596D01*
X023386Y007633D01*
X023386Y007780D01*
X023422Y007816D01*
X023496Y007816D01*
X023532Y007780D01*
X023607Y007816D02*
X023607Y007706D01*
X023680Y007743D01*
X023717Y007743D01*
X023753Y007706D01*
X023753Y007633D01*
X023717Y007596D01*
X023643Y007596D01*
X023607Y007633D01*
X023607Y007816D02*
X023753Y007816D01*
X023043Y007823D02*
X022896Y007823D01*
X023006Y007933D01*
X023006Y007713D01*
X022822Y007823D02*
X022785Y007786D01*
X022675Y007786D01*
X022675Y007713D02*
X022675Y007933D01*
X022785Y007933D01*
X022822Y007896D01*
X022822Y007823D01*
X022601Y007933D02*
X022527Y007933D01*
X022564Y007933D02*
X022564Y007749D01*
X022527Y007713D01*
X022490Y007713D01*
X022454Y007749D01*
X024729Y007566D02*
X024729Y007346D01*
X024729Y007420D02*
X024839Y007420D01*
X024876Y007456D01*
X024876Y007530D01*
X024839Y007566D01*
X024729Y007566D01*
X024950Y007493D02*
X025024Y007566D01*
X025024Y007346D01*
X025097Y007346D02*
X024950Y007346D01*
X024876Y007346D02*
X024803Y007420D01*
X025571Y007673D02*
X026752Y007673D01*
X026752Y008854D01*
X025571Y008854D01*
X025571Y007673D01*
X026431Y007870D02*
X026433Y007892D01*
X026438Y007912D01*
X026448Y007932D01*
X026460Y007950D01*
X026475Y007965D01*
X026493Y007977D01*
X026513Y007987D01*
X026533Y007992D01*
X026555Y007994D01*
X026577Y007992D01*
X026597Y007987D01*
X026617Y007977D01*
X026635Y007965D01*
X026650Y007950D01*
X026662Y007932D01*
X026672Y007912D01*
X026677Y007892D01*
X026679Y007870D01*
X026677Y007848D01*
X026672Y007828D01*
X026662Y007808D01*
X026650Y007790D01*
X026635Y007775D01*
X026617Y007763D01*
X026597Y007753D01*
X026577Y007748D01*
X026555Y007746D01*
X026533Y007748D01*
X026513Y007753D01*
X026493Y007763D01*
X026475Y007775D01*
X026460Y007790D01*
X026448Y007808D01*
X026438Y007828D01*
X026433Y007848D01*
X026431Y007870D01*
X026516Y008539D02*
X025807Y008539D01*
X025807Y008776D01*
X026516Y008776D01*
X026516Y008539D01*
X026476Y008579D02*
X026476Y008736D01*
X025846Y008736D01*
X025846Y008579D01*
X026476Y008579D01*
X029171Y006488D02*
X029171Y006342D01*
X029208Y006305D01*
X029281Y006305D01*
X029318Y006342D01*
X029392Y006305D02*
X029539Y006305D01*
X029466Y006305D02*
X029466Y006525D01*
X029392Y006452D01*
X029318Y006488D02*
X029281Y006525D01*
X029208Y006525D01*
X029171Y006488D01*
X029613Y006525D02*
X029760Y006525D01*
X029760Y006488D01*
X029613Y006342D01*
X029613Y006305D01*
X007227Y002931D02*
X007153Y002895D01*
X007080Y002821D01*
X007190Y002821D01*
X007227Y002785D01*
X007227Y002748D01*
X007190Y002711D01*
X007116Y002711D01*
X007080Y002748D01*
X007080Y002821D01*
X007006Y002748D02*
X006969Y002711D01*
X006895Y002711D01*
X006859Y002748D01*
X006859Y002895D01*
X006895Y002931D01*
X006969Y002931D01*
X007006Y002895D01*
X006666Y002895D02*
X006666Y002858D01*
X006630Y002821D01*
X006666Y002785D01*
X006666Y002748D01*
X006630Y002711D01*
X006556Y002711D01*
X006519Y002748D01*
X006445Y002711D02*
X006298Y002711D01*
X006372Y002711D02*
X006372Y002931D01*
X006298Y002858D01*
X006224Y002895D02*
X006188Y002931D01*
X006114Y002931D01*
X006078Y002895D01*
X006078Y002748D01*
X006114Y002711D01*
X006188Y002711D01*
X006224Y002748D01*
X006593Y002821D02*
X006630Y002821D01*
X006666Y002895D02*
X006630Y002931D01*
X006556Y002931D01*
X006519Y002895D01*
D12*
X005646Y002392D02*
X004426Y002392D01*
X004426Y004636D01*
X005646Y004636D01*
X005646Y002392D01*
X006151Y003614D02*
X006151Y003904D01*
X006671Y003914D02*
X006671Y003614D01*
X007026Y003614D02*
X007026Y003904D01*
X007546Y003914D02*
X007546Y003614D01*
X005936Y005629D02*
X005646Y005629D01*
X005636Y006149D02*
X005936Y006149D01*
X005936Y006504D02*
X005646Y006504D01*
X005636Y007024D02*
X005936Y007024D01*
X003671Y007039D02*
X003671Y006739D01*
X003151Y006739D02*
X003151Y007029D01*
X003547Y008037D02*
X004108Y008037D01*
X003536Y008087D02*
X003538Y008099D01*
X003543Y008110D01*
X003551Y008119D01*
X003562Y008125D01*
X003574Y008128D01*
X003586Y008127D01*
X003598Y008123D01*
X003607Y008115D01*
X003614Y008105D01*
X003618Y008093D01*
X003618Y008081D01*
X003614Y008069D01*
X003607Y008059D01*
X003597Y008051D01*
X003586Y008047D01*
X003574Y008046D01*
X003562Y008049D01*
X003551Y008055D01*
X003543Y008064D01*
X003538Y008075D01*
X003536Y008087D01*
X003547Y008127D02*
X003569Y008132D01*
X003589Y008140D01*
X003607Y008151D01*
X003624Y008166D01*
X003638Y008182D01*
X003650Y008201D01*
X003658Y008221D01*
X003663Y008242D01*
X003665Y008264D01*
X003663Y008286D01*
X003658Y008307D01*
X003650Y008327D01*
X003638Y008346D01*
X003624Y008362D01*
X003607Y008377D01*
X003589Y008388D01*
X003569Y008396D01*
X003547Y008401D01*
X003705Y008490D02*
X004118Y008490D01*
X004276Y008401D02*
X004254Y008396D01*
X004234Y008388D01*
X004216Y008377D01*
X004199Y008362D01*
X004185Y008346D01*
X004173Y008327D01*
X004165Y008307D01*
X004160Y008286D01*
X004158Y008264D01*
X004160Y008242D01*
X004165Y008221D01*
X004173Y008201D01*
X004185Y008182D01*
X004199Y008166D01*
X004216Y008151D01*
X004234Y008140D01*
X004254Y008132D01*
X004276Y008127D01*
X005636Y008379D02*
X005936Y008379D01*
X005926Y008899D02*
X005636Y008899D01*
X024026Y008414D02*
X024026Y008114D01*
X024546Y008124D02*
X024546Y008414D01*
X027129Y007620D02*
X027129Y007553D01*
X027163Y007520D01*
X027129Y007432D02*
X027330Y007432D01*
X027129Y007299D01*
X027330Y007299D01*
X027296Y007211D02*
X027330Y007178D01*
X027330Y007111D01*
X027296Y007078D01*
X027229Y007111D02*
X027229Y007178D01*
X027263Y007211D01*
X027296Y007211D01*
X027229Y007111D02*
X027196Y007078D01*
X027163Y007078D01*
X027129Y007111D01*
X027129Y007178D01*
X027163Y007211D01*
X027330Y007520D02*
X027196Y007653D01*
X027163Y007653D01*
X027129Y007620D01*
X027330Y007653D02*
X027330Y007520D01*
X028651Y005539D02*
X028651Y005239D01*
X029171Y005249D02*
X029171Y005539D01*
D13*
X006074Y005889D03*
X005504Y005889D03*
X005504Y006764D03*
X006074Y006764D03*
X006069Y008638D03*
X005499Y008638D03*
D14*
X005506Y007889D02*
X006066Y007889D01*
X006066Y007389D02*
X005506Y007389D01*
X004536Y007169D02*
X004536Y006609D01*
X004036Y006609D02*
X004036Y007169D01*
X002230Y007219D02*
X002230Y006808D01*
X001592Y006808D02*
X001592Y006845D01*
X001592Y006491D02*
X001592Y006454D01*
X001592Y007574D01*
X001592Y007537D01*
X001592Y007574D02*
X002230Y007574D01*
X002230Y007537D01*
X002230Y007574D02*
X002230Y006454D01*
X002230Y006491D01*
X002230Y006454D02*
X001592Y006454D01*
X001592Y007182D02*
X001592Y007219D01*
X002006Y007889D02*
X002566Y007889D01*
X002566Y008389D02*
X002006Y008389D01*
X007036Y007419D02*
X007036Y006859D01*
X007536Y006859D02*
X007536Y007419D01*
X016161Y007514D02*
X016161Y007014D01*
X016411Y006764D01*
X016911Y006764D01*
X017161Y007014D01*
X017161Y007514D01*
X016911Y007764D01*
X016411Y007764D01*
X016161Y007514D01*
X016411Y006764D02*
X016161Y006514D01*
X016161Y006014D01*
X016411Y005764D01*
X016911Y005764D01*
X017161Y006014D01*
X017161Y006514D01*
X016911Y006764D01*
X017536Y006264D02*
X017786Y006514D01*
X018286Y006514D01*
X018536Y006264D01*
X018536Y005764D01*
X018286Y005514D01*
X018536Y005264D01*
X018536Y004764D01*
X018286Y004514D01*
X017786Y004514D01*
X017536Y004764D01*
X017536Y005264D01*
X017786Y005514D01*
X017536Y005764D01*
X017536Y006264D01*
X017786Y005514D02*
X018286Y005514D01*
X017161Y005264D02*
X016911Y005514D01*
X016411Y005514D01*
X016161Y005264D01*
X016161Y004764D01*
X016411Y004514D01*
X016161Y004264D01*
X016161Y003764D01*
X016411Y003514D01*
X016911Y003514D01*
X017161Y003764D01*
X017161Y004264D01*
X016911Y004514D01*
X016411Y004514D01*
X016911Y004514D02*
X017161Y004764D01*
X017161Y005264D01*
X017786Y004514D02*
X017536Y004264D01*
X017536Y003764D01*
X017786Y003514D01*
X017536Y003264D01*
X017536Y002764D01*
X017786Y002514D01*
X018286Y002514D01*
X018536Y002764D01*
X018536Y003264D01*
X018286Y003514D01*
X017786Y003514D01*
X018286Y003514D02*
X018536Y003764D01*
X018536Y004264D01*
X018286Y004514D01*
X017161Y003264D02*
X016911Y003514D01*
X016411Y003514D02*
X016161Y003264D01*
X016161Y002764D01*
X016411Y002514D01*
X016161Y002264D01*
X016161Y001764D01*
X016411Y001514D01*
X016911Y001514D01*
X017161Y001764D01*
X017161Y002264D01*
X016911Y002514D01*
X016411Y002514D01*
X016911Y002514D02*
X017161Y002764D01*
X017161Y003264D01*
X023161Y005234D02*
X023161Y005794D01*
X023661Y005794D02*
X023661Y005234D01*
X024036Y006109D02*
X024036Y006669D01*
X024536Y006669D02*
X024536Y006109D01*
X025318Y006546D02*
X025318Y007106D01*
X025818Y007106D02*
X025818Y006546D01*
X021910Y007201D02*
X021350Y007201D01*
X021350Y007701D02*
X021910Y007701D01*
X021911Y008014D02*
X021661Y008264D01*
X021411Y008014D01*
X020911Y008014D01*
X020661Y008264D01*
X020661Y008764D01*
X020911Y009014D01*
X021411Y009014D01*
X021661Y008764D01*
X021911Y009014D01*
X022411Y009014D01*
X022661Y008764D01*
X022911Y009014D01*
X023411Y009014D01*
X023661Y008764D01*
X023661Y008264D01*
X023411Y008014D01*
X022911Y008014D01*
X022661Y008264D01*
X022411Y008014D01*
X021911Y008014D01*
X021661Y008264D02*
X021661Y008764D01*
X022661Y008764D02*
X022661Y008264D01*
D15*
X002374Y007388D03*
X001449Y007388D03*
X001449Y007014D03*
X001449Y006640D03*
X002374Y006640D03*
D16*
X003412Y006601D03*
X003412Y007171D03*
X006412Y004046D03*
X007287Y004046D03*
X007287Y003476D03*
X006412Y003476D03*
X024286Y007981D03*
X024286Y008551D03*
X028911Y005676D03*
X028911Y005106D03*
D17*
X021970Y007451D03*
X021290Y007451D03*
X006126Y007639D03*
X005446Y007639D03*
X002626Y008139D03*
X001946Y008139D03*
D18*
X003616Y008446D03*
X004207Y008446D03*
X004207Y008082D03*
D19*
X004157Y008165D03*
X003665Y008165D03*
X003665Y008362D03*
X004157Y008362D03*
D20*
X004143Y008264D03*
X003680Y008264D03*
D21*
X003872Y008264D03*
D22*
X003655Y008087D03*
D23*
X003532Y008082D03*
D24*
X004286Y007229D03*
X004286Y006549D03*
X007286Y006799D03*
X007286Y007479D03*
X023411Y005854D03*
X024286Y006049D03*
X025568Y006486D03*
X024286Y006729D03*
X025568Y007166D03*
X023411Y005174D03*
D25*
X019611Y007764D02*
X017211Y007764D01*
X017211Y009264D01*
X019611Y009264D01*
X019611Y007764D01*
X018911Y008264D02*
X017911Y008264D01*
X017911Y008764D01*
X018911Y008764D01*
X018911Y008264D01*
X015976Y008538D02*
X007905Y008538D01*
X007905Y002239D01*
X015976Y002239D01*
X015976Y008538D01*
X015976Y002239D01*
X007905Y002239D01*
X007905Y008538D01*
X015976Y008538D01*
D26*
X003736Y003695D02*
X003342Y003695D01*
X003736Y003695D02*
X003736Y003301D01*
X000980Y003695D02*
X000586Y003695D01*
X000589Y003688D02*
X000589Y003301D01*
X000586Y003301D01*
X000586Y002120D02*
X000586Y001726D01*
X003736Y001726D02*
X003736Y002120D01*
D27*
X016661Y002014D03*
X016661Y003014D03*
X018036Y003014D03*
X018036Y004014D03*
X016661Y004014D03*
X016661Y005014D03*
X018036Y005014D03*
X018036Y006014D03*
X016661Y006264D03*
X016661Y007264D03*
X021161Y008514D03*
X022161Y008514D03*
X023161Y008514D03*
D28*
X025472Y008854D02*
X025472Y008953D01*
X026850Y008953D01*
X026850Y008854D01*
X026850Y007673D02*
X026850Y007575D01*
X025472Y007575D01*
X025472Y007673D01*
D29*
X026727Y007501D03*
D30*
X005036Y004655D03*
X005036Y002372D03*
D31*
X005036Y004449D03*
M02*
